<svg width="105" height="135" viewBox="0 0 105 135" fill="none" xmlns="http://www.w3.org/2000/svg">
<path fill-rule="evenodd" clip-rule="evenodd" d="M60.649 0V38.7788L63.8045 39.6158C73.3352 42.138 81.6068 47.778 87.4504 55.3822C90.6851 59.5858 93.1809 64.4002 94.7266 69.6217H103.473C101.709 62.4775 98.4816 55.8987 94.1234 50.2285C87.8123 42.0286 79.1299 35.7439 69.1015 32.3999V8.4487H76.2231V0H60.649ZM35.8985 8.4487H28.7731V0H44.3472V38.7788L41.1955 39.6158C31.6648 42.138 23.3933 47.778 17.5459 55.3822C11.8456 62.7979 8.4525 72.0987 8.4525 82.21C8.4525 94.376 13.3837 105.388 21.3536 113.358C29.3236 121.328 40.3359 126.259 52.4981 126.259C64.6641 126.259 75.6802 121.328 83.6464 113.358C90.6851 106.32 95.3524 96.9132 96.3477 86.4362H52.4981V77.9875H104.83C104.94 79.3825 105 80.7886 105 82.2137C105 96.7096 99.1187 109.833 89.6219 119.334C80.1176 128.834 66.9978 134.712 52.4981 134.712C38.0022 134.712 24.8787 128.834 15.3781 119.334C5.8738 109.833 0 96.7096 0 82.2137C0 70.1948 4.05662 59.107 10.8767 50.2361C17.184 42.0362 25.8664 35.7515 35.8985 32.4075V8.4487Z" fill="#013A59" fill-opacity="0.05"/>
<path fill-rule="evenodd" clip-rule="evenodd" d="M27.9514 83.235C31.4161 83.235 34.2436 80.4113 34.2436 76.9428C34.2436 73.4781 31.4198 70.6543 27.9514 70.6543C24.4867 70.6543 21.6592 73.4781 21.6592 76.9428C21.6592 80.4075 24.4867 83.235 27.9514 83.235Z" fill="#013A59" fill-opacity="0.05"/>
<path fill-rule="evenodd" clip-rule="evenodd" d="M45.3834 67.8626C47.4268 67.8626 49.097 66.1962 49.097 64.1491C49.097 62.1057 47.4306 60.4355 45.3834 60.4355C43.3363 60.4355 41.6699 62.1057 41.6699 64.1491C41.6662 66.1962 43.3363 67.8626 45.3834 67.8626Z" fill="#013A59" fill-opacity="0.05"/>
<path fill-rule="evenodd" clip-rule="evenodd" d="M31.766 60.022C33.0742 60.022 34.1373 58.9589 34.1373 57.6507C34.1373 56.3425 33.0704 55.2793 31.766 55.2793C30.4577 55.2793 29.3945 56.3462 29.3945 57.6507C29.3908 58.9551 30.4577 60.022 31.766 60.022Z" fill="#013A59" fill-opacity="0.05"/>
</svg>
