<svg width="120" height="120" viewBox="0 0 120 120" fill="none" xmlns="http://www.w3.org/2000/svg">
<path d="M120 60C120 93.1371 93.1371 120 60 120C26.8629 120 0 93.1371 0 60C0 26.8629 26.8629 0 60 0C93.1371 0 120 26.8629 120 60ZM24.9213 60C24.9213 79.3734 40.6266 95.0787 60 95.0787C79.3734 95.0787 95.0787 79.3734 95.0787 60C95.0787 40.6266 79.3734 24.9213 60 24.9213C40.6266 24.9213 24.9213 40.6266 24.9213 60Z" fill="url(#paint0_linear_1393_4)"/>
<path d="M65.6621 16.1971C65.0507 16.1218 64.4848 15.9393 63.9644 15.6495C63.4519 15.3606 63.0097 14.9918 62.6378 14.543C62.2739 14.0952 62.006 13.5866 61.8344 13.0174C61.6716 12.4412 61.6298 11.8316 61.7091 11.1885C61.7883 10.5454 61.9763 9.96804 62.2731 9.45652C62.5787 8.93803 62.9625 8.50574 63.4242 8.15962C63.886 7.81351 64.4005 7.56255 64.9678 7.40676C65.543 7.25194 66.1403 7.21268 66.7596 7.28897C67.4424 7.37309 68.043 7.56799 68.5615 7.87367C69.08 8.17935 69.5078 8.56655 69.845 9.03527L68.6039 9.98257C68.4458 9.76158 68.2673 9.57437 68.0686 9.42093C67.8709 9.25955 67.6494 9.12748 67.4041 9.02472C67.1589 8.92196 66.8774 8.85102 66.5599 8.8119C66.1708 8.76397 65.7928 8.78994 65.4259 8.88982C65.0678 8.98273 64.7377 9.14356 64.4355 9.37231C64.1422 9.5941 63.8981 9.87434 63.7032 10.213C63.5084 10.5517 63.3835 10.9434 63.3288 11.388C63.274 11.8326 63.3 12.2428 63.4068 12.6187C63.5137 12.9946 63.682 13.3297 63.9117 13.6239C64.1503 13.9113 64.4355 14.1479 64.7673 14.3338C65.1 14.5119 65.4648 14.6253 65.8618 14.6742C66.2588 14.7231 66.6189 14.7111 66.9423 14.6381C67.2656 14.5651 67.5462 14.4465 67.7841 14.2823C68.0298 14.1192 68.2304 13.9303 68.3858 13.7157C68.5502 13.4942 68.6673 13.2628 68.7373 13.0215L66.0577 12.6914L66.2265 11.3218L70.4067 11.8368C70.4207 11.9191 70.4259 12.0407 70.4222 12.2014C70.4185 12.3622 70.4103 12.4942 70.3976 12.5974C70.3203 13.2246 70.1432 13.7791 69.8662 14.2608C69.5972 14.7435 69.2496 15.144 68.8235 15.4622C68.4064 15.7735 67.928 15.9927 67.3884 16.1197C66.8489 16.2466 66.2734 16.2725 65.6621 16.1971Z" fill="white"/>
<path d="M74.7455 18.2771C74.1628 18.0773 73.6861 17.7659 73.3153 17.3428C72.9521 16.9223 72.7172 16.4358 72.6106 15.8834C72.5116 15.3336 72.5633 14.7636 72.7656 14.1733C72.955 13.6209 73.2588 13.1543 73.677 12.7733C74.0951 12.3924 74.5754 12.1384 75.1179 12.0115C75.6629 11.877 76.223 11.9084 76.7981 12.1056C77.4186 12.3183 77.8954 12.6298 78.2283 13.0399C78.5613 13.4501 78.7609 13.916 78.8273 14.4377C78.8963 14.9518 78.8386 15.4775 78.6544 16.0148C78.6129 16.1359 78.5728 16.2405 78.5341 16.3287C78.498 16.4094 78.4697 16.4673 78.4491 16.5026L73.4775 14.7979L73.8394 13.7423L77.4149 14.9682C77.4515 14.837 77.459 14.6916 77.4376 14.5321C77.4162 14.3725 77.3645 14.2152 77.2823 14.0602C77.2001 13.9052 77.0837 13.7638 76.933 13.636C76.7925 13.5032 76.6125 13.3992 76.393 13.324C76.1055 13.2254 75.8147 13.2103 75.5207 13.2786C75.2342 13.3495 74.9761 13.4978 74.7465 13.7235C74.5195 13.9417 74.3424 14.2361 74.2153 14.6069C74.083 14.9929 74.042 15.3467 74.0924 15.6684C74.1453 15.9825 74.2683 16.253 74.4611 16.4798C74.6641 16.7016 74.917 16.8644 75.2197 16.9682C75.5753 17.0902 75.9002 17.117 76.1942 17.0487C76.4908 16.9728 76.7475 16.8409 76.9641 16.653L77.9649 17.6558C77.5291 18.0391 77.0437 18.2955 76.5088 18.425C75.9765 18.547 75.3887 18.4977 74.7455 18.2771Z" fill="white"/>
<path d="M80.8064 15.2965L81.4192 14.1003L82.4231 14.6146L81.8103 15.8107L80.8064 15.2965ZM81.3405 21.0439C80.778 20.7557 80.4187 20.3694 80.2624 19.8849C80.1098 19.3932 80.1794 18.8626 80.4712 18.2931L83.1575 13.0494L84.5565 13.7661L82.0015 18.7535C81.8666 19.0169 81.8197 19.24 81.8608 19.4229C81.9056 19.5986 82.049 19.7485 82.2911 19.8725C82.405 19.9309 82.5191 19.9714 82.6334 19.994C82.7513 20.0094 82.9087 20.0092 83.1056 19.9932L82.4053 21.3602C82.2195 21.3369 82.0374 21.2975 81.8591 21.2421C81.6842 21.1975 81.5113 21.1314 81.3405 21.0439ZM83.1025 16.4727L83.7153 15.2766L85.1036 15.9879L84.4909 17.184L83.1025 16.4727Z" fill="white"/>
<path d="M86.6695 24.3144L91.8867 17.4883L93.1738 18.472L87.9565 25.298L86.6695 24.3144Z" fill="white"/>
<path d="M89.487 26.4597L93.787 22.1054L94.8371 23.1424L94.2975 23.6888L94.3658 23.7563C94.7047 23.675 95.0527 23.6926 95.4098 23.8091C95.7726 23.92 96.0934 24.1131 96.3723 24.3885C96.9073 24.9169 97.1484 25.4754 97.0956 26.064C97.0427 26.6527 96.7493 27.2173 96.2153 27.7581L93.5425 30.4646L92.424 29.3601L94.9619 26.7902C95.2429 26.5056 95.3825 26.2162 95.3807 25.9221C95.3901 25.6279 95.2697 25.3571 95.0192 25.1098C94.8143 24.9074 94.5788 24.7873 94.3127 24.7494C94.0579 24.7114 93.7951 24.7441 93.5242 24.8477C93.2646 24.9511 93.0224 25.1167 92.7976 25.3444L90.6054 27.5642L89.487 26.4597Z" fill="white"/>
<path d="M97.9015 36.3729L104.509 32.2742L105.363 33.6508L98.7554 37.7495L97.9015 36.3729ZM102.632 30.6143L103.938 29.8047L107.322 35.26L106.016 36.0696L102.632 30.6143Z" fill="white"/>
<path d="M101.161 43.0506C100.917 42.4591 100.829 41.8807 100.899 41.3154C100.978 40.7544 101.19 40.2514 101.535 39.8063C101.889 39.3656 102.351 39.0276 102.92 38.7924C103.49 38.5572 104.052 38.4722 104.607 38.5372C105.172 38.6066 105.677 38.8134 106.122 39.1574C106.578 39.5059 106.928 39.9758 107.172 40.5673C107.416 41.1588 107.499 41.735 107.419 42.296C107.339 42.8569 107.125 43.3563 106.778 43.794C106.434 44.2391 105.977 44.5792 105.408 44.8144C104.839 45.0496 104.272 45.1325 103.706 45.0631C103.151 44.998 102.648 44.795 102.195 44.4539C101.75 44.1098 101.405 43.6421 101.161 43.0506ZM102.514 42.4916C102.63 42.7726 102.798 43.0017 103.019 43.179C103.25 43.3606 103.516 43.4712 103.818 43.5109C104.13 43.5549 104.46 43.5051 104.808 43.3616C105.155 43.218 105.421 43.0219 105.604 42.7732C105.79 42.532 105.9 42.2655 105.935 41.974C105.974 41.6898 105.937 41.4109 105.824 41.1374C105.707 40.8564 105.533 40.6214 105.299 40.4324C105.068 40.2508 104.8 40.1365 104.495 40.0894C104.193 40.0497 103.868 40.1017 103.521 40.2452C103.173 40.3888 102.903 40.5827 102.709 40.8271C102.526 41.0757 102.417 41.3458 102.382 41.6374C102.357 41.9333 102.401 42.2181 102.514 42.4916Z" fill="white"/>
<path d="M103.408 49.9923C103.248 49.2574 103.356 48.6571 103.729 48.1913C104.103 47.7254 104.681 47.4077 105.462 47.2381L109.098 46.4492L109.431 47.9854L105.983 48.7335C105.577 48.8217 105.278 48.989 105.085 49.2353C104.903 49.4878 104.845 49.7704 104.913 50.0831C104.98 50.388 105.11 50.6298 105.304 50.8087C105.506 50.9858 105.748 51.1011 106.03 51.1546C106.313 51.2159 106.611 51.2126 106.924 51.1447L109.973 50.4831L110.306 52.0193L104.326 53.3171L104.013 51.8747L104.763 51.7118L104.743 51.618C104.53 51.5415 104.333 51.4247 104.151 51.2676C103.97 51.1105 103.815 50.9232 103.685 50.7056C103.558 50.4959 103.466 50.2581 103.408 49.9923Z" fill="white"/>
<path d="M104.52 58.1474C104.491 57.524 104.602 56.9625 104.852 56.4627C105.11 55.9705 105.476 55.5736 105.951 55.2718C106.434 54.9777 106.991 54.8163 107.623 54.7877C108.254 54.7591 108.819 54.8697 109.319 55.1193C109.819 55.3769 110.22 55.7391 110.522 56.206C110.823 56.6808 110.988 57.2298 111.017 57.8532C111.047 58.5324 110.93 59.1223 110.664 59.6228C110.399 60.1233 109.999 60.4938 109.465 60.7341L108.801 59.3228C109.075 59.1823 109.27 58.9933 109.388 58.7557C109.513 58.5178 109.569 58.239 109.554 57.9194C109.54 57.6077 109.451 57.3315 109.288 57.0906C109.133 56.8494 108.921 56.6628 108.65 56.5309C108.38 56.399 108.061 56.3414 107.694 56.358C107.326 56.3747 107.01 56.4611 106.744 56.6172C106.487 56.773 106.288 56.9782 106.148 57.2328C106.015 57.4871 105.956 57.77 105.97 58.0817C105.986 58.4333 106.075 58.7215 106.237 58.9464C106.408 59.1709 106.632 59.349 106.91 59.4805L106.35 60.9112C105.828 60.6946 105.4 60.3497 105.066 59.8763C104.733 59.4029 104.55 58.8266 104.52 58.1474Z" fill="white"/>
<path d="M104.771 62.7346L113.297 63.7969L113.103 65.3567L110.947 65.0882L109.899 64.8609L109.888 64.9561C110.144 65.1654 110.339 65.4436 110.473 65.7909C110.614 66.147 110.66 66.5235 110.61 66.9205C110.548 67.4206 110.392 67.8284 110.143 68.144C109.902 68.4607 109.585 68.6791 109.191 68.7993C108.796 68.9274 108.345 68.9599 107.837 68.8966L104.062 68.4262L104.256 66.8664L107.84 67.313C108.11 67.3466 108.339 67.3227 108.527 67.2413C108.721 67.1688 108.877 67.0511 108.994 66.8883C109.11 66.7335 109.182 66.541 109.211 66.3108C109.245 66.0329 109.197 65.777 109.065 65.5429C108.941 65.3097 108.755 65.1173 108.508 64.9656C108.261 64.8139 107.978 64.7182 107.661 64.6787L104.577 64.2944L104.771 62.7346Z" fill="white"/>
<path d="M106.21 76.1443L107.147 75.5213L107.946 76.7424L108.06 76.7465L108.937 75.7037L109.807 76.4262L108.949 77.4508L108.945 77.5645L110.226 78.0437L109.831 79.1002L108.55 78.621L108.483 78.6983L108.453 80.0452L107.322 80.0195L107.345 78.6572L107.257 78.5856L105.852 78.9829L105.554 77.8976L106.989 77.4862L107.022 77.3963L106.21 76.1443Z" fill="white"/>
<path d="M96.2437 85.9062C96.6055 85.4077 97.0392 85.0009 97.5447 84.6858C98.0455 84.3771 98.5823 84.1687 99.155 84.0606C99.7231 83.9589 100.298 83.9707 100.879 84.096C101.462 84.2325 102.016 84.491 102.54 84.8717C103.064 85.2523 103.479 85.6962 103.782 86.2035C104.088 86.722 104.281 87.267 104.36 87.8386C104.439 88.4102 104.41 88.9819 104.272 89.5537C104.129 90.132 103.874 90.6736 103.508 91.1785C103.103 91.7353 102.642 92.1666 102.124 92.4723C101.605 92.778 101.059 92.965 100.486 93.0331L100.258 91.4886C100.528 91.4572 100.778 91.3917 101.008 91.2921C101.245 91.1971 101.468 91.0672 101.677 90.9024C101.885 90.7375 102.084 90.5256 102.272 90.2666C102.502 89.9494 102.662 89.6061 102.752 89.2366C102.844 88.8784 102.863 88.5116 102.809 88.1365C102.757 87.7724 102.63 87.4232 102.428 87.0888C102.226 86.7543 101.944 86.4555 101.581 86.1923C101.219 85.9292 100.847 85.7534 100.467 85.6649C100.086 85.5765 99.7113 85.5616 99.3426 85.6201C98.9757 85.6899 98.6306 85.8249 98.3073 86.0252C97.9905 86.2301 97.7146 86.4945 97.4796 86.8182C97.2447 87.1419 97.0809 87.4628 96.9883 87.7811C96.8956 88.0994 96.8636 88.4023 96.8921 88.6899C96.9159 88.9839 96.9841 89.2509 97.0966 89.4907C97.211 89.7418 97.3567 89.9563 97.5339 90.1343L99.1199 87.9494L100.237 88.76L97.7626 92.1685C97.6837 92.1409 97.5749 92.0866 97.436 92.0056C97.2971 91.9246 97.1856 91.8535 97.1014 91.7924C96.59 91.4212 96.1905 90.9978 95.9031 90.5223C95.6109 90.0532 95.4287 89.5552 95.3565 89.0283C95.286 88.5126 95.3258 87.9879 95.4758 87.4543C95.6259 86.9208 95.8818 86.4047 96.2437 85.9062Z" fill="white"/>
<path d="M90.0256 92.8504C90.4817 92.4364 90.9844 92.169 91.5339 92.0482C92.0775 91.9329 92.6169 91.9617 93.1522 92.1348C93.6816 92.3132 94.156 92.6334 94.5755 93.0954C94.9681 93.5277 95.2304 94.0189 95.3624 94.5689C95.4944 95.1189 95.4852 95.6621 95.3348 96.1986C95.1897 96.7409 94.8921 97.2164 94.442 97.6251C93.9563 98.066 93.4536 98.3334 92.9337 98.4273C92.4138 98.5211 91.9094 98.4713 91.4204 98.2779C90.9367 98.0903 90.504 97.7863 90.1222 97.3658C90.0361 97.271 89.9638 97.1854 89.9052 97.109C89.852 97.0384 89.8149 96.9857 89.7939 96.9507L93.685 93.4177L94.4352 94.2439L91.6368 96.7847C91.7341 96.88 91.8578 96.9568 92.0079 97.015C92.158 97.0732 92.3208 97.1037 92.4962 97.1065C92.6716 97.1093 92.8517 97.0755 93.0363 97.0051C93.2203 96.9461 93.3983 96.8385 93.57 96.6826C93.7951 96.4782 93.9486 96.2308 94.0305 95.9403C94.1066 95.6551 94.1011 95.3575 94.0141 95.0475C93.9325 94.7435 93.76 94.4463 93.4965 94.1561C93.2222 93.8541 92.932 93.6475 92.6259 93.5365C92.3252 93.4314 92.029 93.4086 91.7373 93.4682C91.445 93.539 91.1805 93.682 90.9436 93.8971C90.6652 94.1498 90.485 94.4215 90.4031 94.712C90.3265 95.0084 90.3182 95.2969 90.3783 95.5773L89.0172 95.9703C88.8916 95.4036 88.9011 94.8548 89.0456 94.3237C89.1956 93.7986 89.5222 93.3075 90.0256 92.8504Z" fill="white"/>
<path d="M89.7111 99.5972L90.4647 100.71L89.5308 101.342L88.7772 100.23L89.7111 99.5972ZM84.4159 97.2994C84.9392 96.945 85.4508 96.8159 85.9507 96.9121C86.4551 97.015 86.8868 97.3313 87.2456 97.8612L90.5493 102.739L89.2478 103.621L86.1056 98.9811C85.9396 98.736 85.7666 98.5875 85.5865 98.5356C85.4108 98.4903 85.2104 98.5438 84.9852 98.6964C84.8793 98.7681 84.7889 98.8487 84.7141 98.938C84.6438 99.0339 84.5682 99.172 84.4875 99.3523L83.6262 98.0806C83.736 97.9289 83.8582 97.7882 83.9926 97.6586C84.1159 97.5268 84.257 97.407 84.4159 97.2994ZM87.575 101.044L88.3286 102.157L87.037 103.031L86.2834 101.919L87.575 101.044Z" fill="white"/>
<path d="M78.9806 100.401L82.4492 108.262L80.9672 108.916L77.4986 101.055L78.9806 100.401Z" fill="white"/>
<path d="M75.7591 101.835L77.4963 107.703L76.0811 108.122L75.8631 107.385L75.771 107.412C75.6786 107.748 75.4952 108.045 75.2207 108.301C74.9485 108.565 74.6245 108.753 74.2486 108.864C73.5276 109.078 72.9221 109.019 72.4321 108.689C71.9422 108.358 71.5893 107.829 71.3736 107.1L70.2939 103.453L71.8011 103.006L72.8264 106.47C72.9399 106.853 73.1259 107.115 73.3844 107.256C73.6375 107.406 73.9328 107.431 74.2703 107.331C74.5464 107.249 74.7653 107.101 74.927 106.886C75.0833 106.682 75.1815 106.436 75.2216 106.148C75.2564 105.871 75.2283 105.579 75.1375 105.272L74.2519 102.281L75.7591 101.835Z" fill="white"/>
<path d="M63.006 104.406L63.3944 112.172L61.7765 112.253L61.3881 104.487L63.006 104.406ZM65.7553 111.333L65.832 112.867L59.4203 113.188L59.3436 111.654L65.7553 111.333Z" fill="white"/>
<path d="M55.5183 104.03C56.1542 104.102 56.7029 104.305 57.1643 104.639C57.6169 104.98 57.9548 105.409 58.1783 105.925C58.3928 106.448 58.4656 107.016 58.3964 107.628C58.3272 108.24 58.1301 108.773 57.805 109.228C57.4711 109.689 57.046 110.032 56.5297 110.255C56.0045 110.485 55.424 110.565 54.788 110.493C54.1521 110.421 53.6079 110.215 53.1553 109.874C52.7028 109.533 52.3688 109.105 52.1533 108.589C51.9299 108.073 51.8527 107.509 51.9219 106.896C51.9911 106.284 52.1926 105.748 52.5265 105.286C52.8516 104.832 53.2727 104.489 53.7899 104.258C54.3063 104.034 54.8824 103.959 55.5183 104.03ZM55.3539 105.485C55.0519 105.451 54.77 105.487 54.5083 105.595C54.2378 105.709 54.0122 105.889 53.8315 106.134C53.642 106.386 53.5261 106.699 53.4839 107.073C53.4417 107.447 53.4852 107.774 53.6146 108.054C53.736 108.333 53.9158 108.559 54.154 108.731C54.3842 108.902 54.6464 109.004 54.9405 109.037C55.2426 109.071 55.5328 109.031 55.8113 108.918C56.0819 108.804 56.3114 108.624 56.5001 108.38C56.6807 108.135 56.7922 107.825 56.8344 107.452C56.8766 107.078 56.8375 106.748 56.717 106.46C56.5877 106.18 56.4039 105.954 56.1657 105.782C55.9186 105.617 55.6481 105.518 55.3539 105.485Z" fill="white"/>
<path d="M48.3681 102.651C49.0887 102.866 49.5629 103.249 49.7907 103.801C50.0184 104.353 50.018 105.012 49.7894 105.779L48.7266 109.344L47.2202 108.895L48.2282 105.514C48.347 105.115 48.3449 104.772 48.2218 104.485C48.0888 104.203 47.8689 104.017 47.5623 103.925C47.2633 103.836 46.9886 103.834 46.7382 103.918C46.4855 104.009 46.2678 104.166 46.085 104.387C45.8946 104.605 45.7537 104.868 45.6623 105.175L44.7708 108.164L43.2644 107.715L45.013 101.851L46.4274 102.272L46.208 103.008L46.3 103.036C46.4698 102.886 46.6673 102.77 46.8924 102.686C47.1176 102.603 47.3565 102.558 47.6094 102.55C47.8546 102.539 48.1075 102.573 48.3681 102.651Z" fill="white"/>
<path d="M40.68 99.6744C41.2391 99.9513 41.677 100.32 41.9936 100.78C42.2995 101.244 42.4696 101.757 42.504 102.318C42.5277 102.883 42.3993 103.449 42.1188 104.016C41.8384 104.582 41.468 105.023 41.0077 105.34C40.5403 105.653 40.0294 105.829 39.475 105.866C38.9134 105.901 38.3531 105.78 37.7939 105.503C37.1846 105.201 36.7251 104.813 36.4156 104.338C36.1061 103.863 35.9753 103.335 36.0231 102.751L37.5798 102.853C37.5702 103.16 37.641 103.423 37.7921 103.641C37.9396 103.865 38.1568 104.049 38.4435 104.191C38.7231 104.329 39.0078 104.385 39.2974 104.359C39.5836 104.34 39.8497 104.244 40.0959 104.072C40.3421 103.899 40.5468 103.648 40.7101 103.318C40.8734 102.988 40.9509 102.67 40.9426 102.362C40.9307 102.061 40.8473 101.788 40.6925 101.542C40.5342 101.303 40.3153 101.114 40.0357 100.976C39.7202 100.819 39.4249 100.758 39.1495 100.791C38.8706 100.832 38.6063 100.942 38.3566 101.122L37.3753 99.9394C37.8176 99.5871 38.3266 99.3794 38.9023 99.3164C39.4781 99.2533 40.0706 99.3727 40.68 99.6744Z" fill="white"/>
<path d="M36.6111 97.722L31.5547 104.668L30.2838 103.743L31.5621 101.987L32.2682 101.18L32.1906 101.124C31.8835 101.246 31.5456 101.282 31.1769 101.232C30.797 101.183 30.4453 101.04 30.1219 100.805C29.7145 100.508 29.4329 100.175 29.2772 99.8042C29.1168 99.4401 29.0794 99.0566 29.1648 98.6538C29.2438 98.2462 29.434 97.8355 29.7353 97.4216L31.974 94.3463L33.2448 95.2714L31.1191 98.1915C30.9591 98.4114 30.8693 98.6231 30.8498 98.8265C30.8191 99.0318 30.8467 99.225 30.9324 99.4062C31.0118 99.5827 31.1452 99.7392 31.3328 99.8757C31.5591 100.04 31.8067 100.122 32.0755 100.12C32.3395 100.124 32.5978 100.054 32.8501 99.9117C33.1025 99.7689 33.3229 99.5681 33.5112 99.3094L35.3403 96.7968L36.6111 97.722Z" fill="white"/>
<path d="M24.1737 92.4908L24.2675 93.6126L22.8126 93.7238L22.7541 93.8214L23.2451 95.0924L22.1927 95.5063L21.7082 94.2614L21.6106 94.2029L20.5731 95.0944L19.8379 94.239L20.8754 93.3474L20.8402 93.2512L19.6745 92.5758L20.242 91.5977L21.4246 92.2743L21.53 92.2312L21.8588 90.8096L22.9537 91.0711L22.6223 92.5266L22.6849 92.5994L24.1737 92.4908Z" fill="white"/>
<path d="M20.4142 79.0538C20.6769 79.6109 20.8247 80.1868 20.8575 80.7816C20.8869 81.3692 20.8112 81.94 20.6302 82.4941C20.4459 83.0409 20.1588 83.5388 19.7692 83.9879C19.3689 84.4332 18.8757 84.794 18.2896 85.0703C17.7035 85.3467 17.115 85.496 16.524 85.5181C15.9224 85.5365 15.352 85.4428 14.8128 85.2372C14.2736 85.0315 13.7867 84.7305 13.3521 84.334C12.9141 83.9303 12.5621 83.4462 12.2959 82.8819C12.0025 82.2596 11.8466 81.6477 11.8283 81.0461C11.8099 80.4445 11.9089 79.876 12.1252 79.3406L13.5888 79.8842C13.4864 80.136 13.4234 80.3868 13.3997 80.6367C13.3688 80.8901 13.3754 81.1479 13.4195 81.4101C13.4635 81.6724 13.5538 81.9482 13.6903 82.2376C13.8575 82.5922 14.0812 82.8979 14.3616 83.1549C14.6313 83.408 14.9436 83.6013 15.2983 83.7347C15.6425 83.8643 16.0097 83.921 16.4002 83.905C16.7906 83.8889 17.1884 83.7853 17.5936 83.5943C17.9988 83.4032 18.3318 83.1622 18.5925 82.8712C18.8533 82.5802 19.0468 82.259 19.173 81.9076C19.2885 81.5524 19.3363 81.185 19.3164 80.8052C19.2893 80.4288 19.1905 80.0598 19.0199 79.698C18.8493 79.3362 18.6468 79.0381 18.4124 78.8037C18.1781 78.5693 17.928 78.3953 17.6622 78.2818C17.3931 78.1611 17.1262 78.0924 16.8618 78.0755C16.5868 78.0549 16.3285 78.0794 16.0872 78.149L17.2387 80.5909L15.9906 81.1795L14.1942 77.37C14.2563 77.3142 14.3563 77.2449 14.4942 77.1622C14.6321 77.0795 14.7481 77.016 14.8421 76.9716C15.4138 76.7021 15.9772 76.5558 16.5323 76.5328C17.0841 76.5026 17.6083 76.5826 18.1049 76.773C18.5909 76.9595 19.0316 77.247 19.427 77.6354C19.8224 78.0238 20.1515 78.4966 20.4142 79.0538Z" fill="white"/>
<path d="M17.3259 70.2484C17.4677 70.8478 17.4585 71.4172 17.2984 71.9565C17.1364 72.488 16.8502 72.9462 16.4398 73.331C16.0275 73.708 15.5178 73.9683 14.9106 74.112C14.3423 74.2464 13.7855 74.2384 13.2402 74.0878C12.695 73.9373 12.224 73.6665 11.8273 73.2753C11.4228 72.886 11.1506 72.3955 11.0107 71.8039C10.8597 71.1655 10.8688 70.5962 11.0382 70.0958C11.2075 69.5954 11.4952 69.178 11.9011 68.8436C12.2992 68.511 12.7746 68.2793 13.3273 68.1486C13.4519 68.1191 13.5618 68.0973 13.657 68.0829C13.7445 68.0705 13.8086 68.0635 13.8494 68.0621L15.0592 73.1767L13.9733 73.4336L13.1032 69.7553C12.9727 69.7944 12.8456 69.8655 12.7221 69.9687C12.5985 70.0719 12.4931 70.1996 12.4058 70.3518C12.3185 70.504 12.261 70.6779 12.2333 70.8735C12.1959 71.0632 12.204 71.2709 12.2574 71.4966C12.3273 71.7925 12.4696 72.0465 12.6843 72.2588C12.8971 72.4633 13.1601 72.6025 13.4735 72.6763C13.7792 72.752 14.1227 72.7447 14.5041 72.6545C14.9012 72.5605 15.2223 72.4065 15.4676 72.1923C15.7051 71.9799 15.8683 71.7317 15.9573 71.4476C16.0366 71.1576 16.0395 70.8568 15.9658 70.5454C15.8793 70.1796 15.7287 69.8905 15.5141 69.6782C15.2917 69.4678 15.0432 69.321 14.7687 69.238L15.0832 67.8566C15.6399 68.0208 16.1157 68.2946 16.5105 68.678C16.8976 69.0632 17.1694 69.5867 17.3259 70.2484Z" fill="white"/>
<path d="M11.5789 66.7313L10.2404 66.8523L10.1389 65.7289L11.4774 65.608L11.5789 66.7313ZM16.1523 63.2096C16.2092 63.839 16.0745 64.3492 15.7484 64.7401C15.4143 65.1317 14.9286 65.3564 14.2912 65.414L8.42342 65.9442L8.28194 64.3787L13.8629 63.8743C14.1577 63.8477 14.3714 63.7681 14.504 63.6357C14.6287 63.5039 14.6787 63.3026 14.6543 63.0317C14.6427 62.9043 14.616 62.7862 14.5741 62.6775C14.5242 62.5696 14.4398 62.4367 14.3212 62.2787L15.8508 62.1405C15.9304 62.31 15.9944 62.4849 16.0429 62.6653C16.0985 62.837 16.135 63.0184 16.1523 63.2096ZM11.3467 64.162L10.0082 64.2829L9.86785 62.7293L11.2063 62.6084L11.3467 64.162Z" fill="white"/>
<path d="M16.0654 56.8728L7.50781 56.1094L7.65175 54.4959L16.2094 55.2593L16.0654 56.8728Z" fill="white"/>
<path d="M16.3647 53.374L10.3868 52.0645L10.7026 50.6228L11.4528 50.7871L11.4733 50.6933C11.2235 50.4503 11.0526 50.1467 10.9604 49.7825C10.8603 49.4167 10.8523 49.0423 10.9361 48.6594C11.0971 47.9249 11.4404 47.4227 11.9663 47.153C12.4922 46.8833 13.1263 46.8298 13.8687 46.9924L17.5844 47.8064L17.248 49.3419L13.7198 48.569C13.3291 48.4834 13.0099 48.5199 12.7622 48.6786C12.5085 48.8278 12.3439 49.0742 12.2686 49.4181C12.207 49.6994 12.2312 49.9626 12.3413 50.2079C12.4452 50.4436 12.6133 50.6483 12.8455 50.822C13.0716 50.9861 13.3409 51.1025 13.6535 51.1709L16.7011 51.8385L16.3647 53.374Z" fill="white"/>
<path d="M20.2799 40.9522L13.2955 37.535L14.0074 36.0799L20.9919 39.4972L20.2799 40.9522ZM12.8875 40.0071L11.5078 39.332L14.3292 33.5656L15.7088 34.2406L12.8875 40.0071Z" fill="white"/>
<path d="M24.1921 34.6533C23.8214 35.175 23.3783 35.5569 22.8628 35.799C22.3454 36.03 21.8067 36.1183 21.2468 36.0639C20.6849 35.9983 20.153 35.7871 19.6508 35.4304C19.1487 35.0736 18.7775 34.643 18.5373 34.1387C18.2951 33.6232 18.2013 33.0854 18.2557 32.5255C18.3082 31.9544 18.5198 31.408 18.8905 30.8863C19.2611 30.3646 19.7052 29.9883 20.2226 29.7573C20.74 29.5263 21.2763 29.4413 21.8317 29.5022C22.3916 29.5566 22.9227 29.7622 23.4248 30.119C23.9269 30.4757 24.2991 30.9119 24.5412 31.4274C24.7814 31.9318 24.8776 32.4662 24.8297 33.0308C24.7753 33.5908 24.5628 34.1316 24.1921 34.6533ZM22.9988 33.8054C23.1748 33.5576 23.2793 33.2932 23.312 33.0123C23.3429 32.7202 23.2948 32.4358 23.1676 32.159C23.0386 31.871 22.8208 31.6181 22.5143 31.4004C22.2078 31.1826 21.9007 31.0625 21.5928 31.04C21.2896 31.011 21.0051 31.0591 20.7395 31.1844C20.4784 31.3031 20.2622 31.4831 20.0908 31.7244C19.9147 31.9722 19.8089 32.2454 19.7734 32.544C19.7425 32.8361 19.7883 33.1238 19.9108 33.4071C20.038 33.6839 20.2548 33.9312 20.5613 34.149C20.8678 34.3668 21.1759 34.4925 21.4857 34.5261C21.7935 34.5486 22.0803 34.4972 22.346 34.3719C22.6097 34.2355 22.8273 34.0466 22.9988 33.8054Z" fill="white"/>
<path d="M28.8626 29.0581C28.3266 29.5854 27.7618 29.8155 27.1684 29.7484C26.575 29.6814 25.9978 29.3627 25.4368 28.7924L22.8281 26.1406L23.9487 25.0383L26.4227 27.5532C26.7145 27.8497 27.0158 28.0134 27.3266 28.0442C27.6376 28.0638 27.9071 27.9613 28.1352 27.7369C28.3576 27.5181 28.4925 27.2788 28.5399 27.019C28.5817 26.7535 28.5499 26.4873 28.4446 26.2206C28.3451 25.9483 28.1831 25.6981 27.9587 25.4699L25.7708 23.2459L26.8914 22.1435L31.183 26.5061L30.1309 27.5412L29.5923 26.9937L29.5239 27.061C29.573 27.282 29.5796 27.5112 29.5437 27.7485C29.5078 27.9858 29.4324 28.2171 29.3174 28.4424C29.2081 28.6621 29.0565 28.8673 28.8626 29.0581Z" fill="white"/>
<path d="M35.1818 23.7457C34.67 24.1026 34.1361 24.309 33.5803 24.365C33.0264 24.4098 32.4951 24.3122 31.9864 24.072C31.4796 23.8207 31.0455 23.4359 30.684 22.9175C30.3226 22.3991 30.1139 21.862 30.0579 21.3061C30.0085 20.7457 30.1006 20.2134 30.3342 19.7092C30.5743 19.2005 30.9503 18.7676 31.4622 18.4108C32.02 18.0219 32.5814 17.806 33.1464 17.7632C33.7113 17.7203 34.238 17.8602 34.7263 18.1829L33.8882 19.4986C33.6231 19.3421 33.3588 19.2777 33.0953 19.3054C32.8272 19.3266 32.5619 19.4286 32.2995 19.6116C32.0435 19.7901 31.8573 20.0125 31.7408 20.279C31.6198 20.539 31.5756 20.8184 31.6085 21.1173C31.6414 21.4162 31.763 21.7166 31.9735 22.0185C32.184 22.3203 32.426 22.5416 32.6997 22.6824C32.9688 22.8166 33.2485 22.8751 33.5389 22.8579C33.8247 22.8342 34.0955 22.7332 34.3514 22.5547C34.6402 22.3534 34.8362 22.1241 34.9396 21.8667C35.0384 21.6028 35.0691 21.3181 35.0316 21.0126L36.5401 20.7215C36.6361 21.2788 36.5731 21.8249 36.3513 22.3599C36.1294 22.8949 35.7396 23.3568 35.1818 23.7457Z" fill="white"/>
<path d="M38.8566 21.1198L35.2031 13.3438L36.6258 12.6753L37.5494 14.6411L37.9167 15.6485L38.0035 15.6076C38.0438 15.2794 38.1749 14.9659 38.3969 14.6671C38.6228 14.3577 38.9167 14.118 39.2787 13.9479C39.7349 13.7336 40.1628 13.6474 40.5626 13.6894C40.959 13.7241 41.3131 13.8759 41.625 14.1448C41.9442 14.4103 42.2127 14.7747 42.4304 15.238L44.0479 18.6808L42.6251 19.3492L41.0893 16.0802C40.9736 15.8341 40.8313 15.6535 40.6623 15.5384C40.4972 15.4127 40.3146 15.3438 40.1145 15.3318C39.9216 15.3163 39.7202 15.3579 39.5102 15.4566C39.2568 15.5756 39.0664 15.7535 38.9389 15.9901C38.8081 16.2195 38.7445 16.4792 38.7481 16.7692C38.7518 17.0591 38.8217 17.3489 38.9577 17.6385L40.2793 20.4514L38.8566 21.1198Z" fill="white"/>
<path d="M49.4644 12.7378L48.4375 12.2766L49.0449 10.9498L48.9878 10.8514L47.638 10.6654L47.7856 9.5442L49.1094 9.72331L49.2078 9.66615L48.9303 8.32667L50.0348 8.09782L50.3123 9.4373L50.4136 9.45307L51.569 8.76026L52.15 9.73052L50.9852 10.4375L50.9719 10.5506L52.0565 11.5268L51.2974 12.358L50.1844 11.3632L50.0904 11.3827L49.4644 12.7378Z" fill="white"/>
<circle cx="59.9988" cy="59.9988" r="27.6316" fill="white" fill-opacity="0.1"/>
<rect x="32.7266" y="32.7266" width="54.5455" height="54.5455" rx="27.2727" fill="url(#paint1_linear_1393_4)"/>
<path fill-rule="evenodd" clip-rule="evenodd" d="M61.6444 43.6367V53.0578L62.411 53.2611C64.7264 53.8738 66.7359 55.244 68.1556 57.0914C68.9414 58.1127 69.5478 59.2823 69.9233 60.5508H72.0482C71.6196 58.8152 70.8355 57.2169 69.7768 55.8394C68.2435 53.8473 66.1342 52.3205 63.6979 51.508V45.6893H65.428V43.6367H61.6444ZM55.6314 45.6893H53.9004V43.6367H57.684V53.0578L56.9183 53.2611C54.6029 53.8738 52.5934 55.244 51.1728 57.0914C49.788 58.893 48.9636 61.1526 48.9636 63.609C48.9636 66.5647 50.1616 69.24 52.0979 71.1763C54.0341 73.1125 56.7095 74.3105 59.6642 74.3105C62.6198 74.3105 65.2961 73.1125 67.2314 71.1763C68.9414 69.4663 70.0753 67.1811 70.3171 64.6358H59.6642V62.5832H72.3779C72.4045 62.9221 72.4191 63.2637 72.4191 63.6099C72.4191 67.1316 70.9903 70.3199 68.6832 72.628C66.3742 74.9361 63.1868 76.364 59.6642 76.364C56.1425 76.364 52.9543 74.9361 50.6462 72.628C48.3372 70.3199 46.9102 67.1316 46.9102 63.6099C46.9102 60.69 47.8957 57.9963 49.5526 55.8412C51.0849 53.8491 53.1942 52.3223 55.6314 51.5099V45.6893Z" fill="white"/>
<path fill-rule="evenodd" clip-rule="evenodd" d="M53.7005 63.8572C54.5422 63.8572 55.2292 63.1712 55.2292 62.3285C55.2292 61.4868 54.5432 60.8008 53.7005 60.8008C52.8588 60.8008 52.1719 61.4868 52.1719 62.3285C52.1719 63.1703 52.8588 63.8572 53.7005 63.8572Z" fill="white"/>
<path fill-rule="evenodd" clip-rule="evenodd" d="M57.9373 60.1207C58.4338 60.1207 58.8395 59.7159 58.8395 59.2186C58.8395 58.7222 58.4347 58.3164 57.9373 58.3164C57.44 58.3164 57.0352 58.7222 57.0352 59.2186C57.0342 59.7159 57.44 60.1207 57.9373 60.1207Z" fill="white"/>
<path fill-rule="evenodd" clip-rule="evenodd" d="M54.6269 58.2147C54.9447 58.2147 55.203 57.9564 55.203 57.6386C55.203 57.3208 54.9438 57.0625 54.6269 57.0625C54.3091 57.0625 54.0508 57.3217 54.0508 57.6386C54.0499 57.9555 54.3091 58.2147 54.6269 58.2147Z" fill="white"/>
<defs>
<linearGradient id="paint0_linear_1393_4" x1="120" y1="60" x2="0" y2="60" gradientUnits="userSpaceOnUse">
<stop stop-color="#13E0B9"/>
<stop offset="1" stop-color="#116DAD"/>
</linearGradient>
<linearGradient id="paint1_linear_1393_4" x1="87.272" y1="59.9993" x2="32.7266" y2="59.9993" gradientUnits="userSpaceOnUse">
<stop stop-color="#13E0B9"/>
<stop offset="1" stop-color="#116DAD"/>
</linearGradient>
</defs>
</svg>
