<svg width="30" height="30" viewBox="0 0 30 30" fill="none" xmlns="http://www.w3.org/2000/svg">
<path d="M19.2857 1.07153V13.9287L26.9786 23.7215C27.3533 24.1957 27.5868 24.766 27.6521 25.3668C27.7175 25.9677 27.6121 26.5748 27.3481 27.1185C27.0841 27.6621 26.6721 28.1204 26.1595 28.4406C25.6469 28.7607 25.0544 28.9299 24.45 28.9287H5.55003C4.94564 28.9299 4.35315 28.7607 3.84054 28.4406C3.32793 28.1204 2.91599 27.6621 2.65198 27.1185C2.38797 26.5748 2.2826 25.9677 2.34795 25.3668C2.4133 24.766 2.64674 24.1957 3.02146 23.7215L10.7143 13.9287V1.07153" stroke="white" stroke-width="1.5" stroke-linecap="round" stroke-linejoin="round"/>
<path d="M7.5 1.07153H22.5" stroke="white" stroke-width="1.5" stroke-linecap="round" stroke-linejoin="round"/>
</svg>
