<svg width="57" height="51" viewBox="0 0 57 51" fill="none" xmlns="http://www.w3.org/2000/svg">
<path d="M47.541 14.0723C52.8658 17.3254 56.2499 23.0723 56.25 29.5127C56.25 35.3439 53.447 40.7254 48.6846 44.166C49.1064 45.3565 49.8842 46.4065 50.9902 47.2783C51.6184 47.7752 51.8621 48.6098 51.5996 49.3691C51.3371 50.1191 50.625 50.625 49.8281 50.625C49.575 50.625 44.0902 50.5879 40.4902 47.541C39.4966 47.7003 38.4936 47.7754 37.5 47.7754C34.8094 47.7754 32.2031 47.2224 29.8125 46.1631C40.7438 43.0881 48.75 33.291 48.75 21.7129C48.75 19.0504 48.3285 16.4816 47.541 14.0723ZM22.5 0C34.9031 0 45 9.74102 45 21.7129C44.9998 33.6846 34.903 43.4248 22.5 43.4248C21.2345 43.4248 19.969 43.3214 18.7129 43.1152C14.4379 46.8277 7.7248 46.875 7.4248 46.875C6.62803 46.8749 5.91582 46.3687 5.65332 45.6094C5.4002 44.85 5.64375 44.0061 6.28125 43.5186C7.7812 42.3467 8.79337 40.9404 9.31836 39.2998C3.45931 35.2217 0.000128167 28.7438 0 21.7129C0 9.74102 10.0969 0 22.5 0ZM22.5 30C21.4688 30 20.625 30.8438 20.625 31.875V32.8125C20.625 33.8438 21.4688 34.6875 22.5 34.6875C23.5312 34.6875 24.375 33.8438 24.375 32.8125V31.875C24.375 30.8438 23.5312 30 22.5 30ZM24.1035 9.54395C21.8535 9.0752 19.5467 9.6184 17.7842 11.0527C16.0217 12.4871 15.0098 14.6062 15.0098 16.875C15.0098 17.9062 15.8535 18.75 16.8848 18.75C17.9158 18.7498 18.7598 17.9061 18.7598 16.875C18.7598 15.7406 19.2653 14.6715 20.1465 13.959C21.037 13.2278 22.1716 12.9654 23.334 13.209C24.7309 13.4996 25.8754 14.6348 26.166 16.041C26.5783 18.0189 25.481 19.5661 24.2061 20.2129C21.9937 21.3473 20.625 23.5034 20.625 25.8564V26.25C20.625 27.2812 21.4688 28.125 22.5 28.125C23.5312 28.125 24.375 27.2812 24.375 26.25V25.8564C24.375 24.919 24.9654 24.0373 25.9121 23.5498H25.9219C28.9687 21.9935 30.5439 18.6656 29.8408 15.2812C29.2502 12.4408 26.944 10.1347 24.1035 9.54395Z" fill="url(#paint0_linear_586_3051)"/>
<defs>
<linearGradient id="paint0_linear_586_3051" x1="56.25" y1="25.3125" x2="0" y2="25.3125" gradientUnits="userSpaceOnUse">
<stop stop-color="#13E0B9"/>
<stop offset="1" stop-color="#116DAD"/>
</linearGradient>
</defs>
</svg>
