<svg width="40" height="40" viewBox="0 0 40 40" fill="none" xmlns="http://www.w3.org/2000/svg">
<g clip-path="url(#clip0_319_235)">
<path d="M20 0.678711C26.8204 0.678795 32.8146 4.21306 36.2529 9.5498C36.2746 9.57849 36.2931 9.60894 36.3105 9.64062C38.216 12.6346 39.3213 16.1882 39.3213 20C39.3212 30.6707 30.6707 39.3212 20 39.3213C17.9692 39.3213 16.0116 39.0067 14.1729 38.4258C14.0952 38.414 14.023 38.3881 13.9551 38.3545C6.24513 35.8169 0.678817 28.5595 0.678711 20C0.678786 9.32918 9.32918 0.678786 20 0.678711ZM20 2.17871C10.1576 2.17879 2.17879 10.1576 2.17871 20C2.17872 20.7131 2.22129 21.4162 2.30273 22.1074H8.57129C10.2857 22.1074 11.9303 22.7887 13.1426 24.001C14.3546 25.2131 15.036 26.8571 15.0361 28.5713V37.1191C16.6119 37.5752 18.2773 37.8213 20 37.8213C22.2319 37.8213 24.367 37.4084 26.3359 36.6592V24.2861C26.3359 23.7273 26.1138 23.1911 25.7188 22.7959C25.3236 22.4008 24.7873 22.1788 24.2285 22.1787C22.5143 22.1786 20.8704 21.4972 19.6582 20.2852C18.4459 19.0729 17.7646 17.4283 17.7646 15.7139C17.7648 13.9996 18.446 12.3557 19.6582 11.1436C20.8704 9.93144 22.5143 9.25011 24.2285 9.25H34.2139C30.96 4.95422 25.8045 2.17879 20 2.17871ZM2.54395 23.6074C3.77002 29.571 7.97564 34.4462 13.5361 36.6113V28.5713C13.536 27.255 13.0127 25.9924 12.082 25.0615C11.151 24.1305 9.8879 23.6074 8.57129 23.6074H2.54395ZM24.2285 10.75C22.9121 10.7501 21.6496 11.2733 20.7188 12.2041C19.7879 13.135 19.2648 14.3974 19.2646 15.7139C19.2646 17.0305 19.7878 18.2936 20.7188 19.2246C21.6496 20.1554 22.9121 20.6786 24.2285 20.6787C25.1851 20.6788 26.1029 21.0589 26.7793 21.7354C27.4557 22.4118 27.8359 23.3295 27.8359 24.2861V36.0078C33.7491 33.1078 37.8212 27.0303 37.8213 20C37.8213 16.6129 36.8759 13.4465 35.2354 10.75H24.2285Z" fill="#13E0B9"/>
</g>
<defs>
<clipPath id="clip0_319_235">
<rect width="40" height="40" fill="white"/>
</clipPath>
</defs>
</svg>
