<svg width="24" height="24" viewBox="0 0 24 24" fill="none" xmlns="http://www.w3.org/2000/svg">
<path d="M9.70289 15.9421C9.62275 15.549 9.40731 15.1966 9.09408 14.946C8.78085 14.6954 8.38966 14.5626 7.98861 14.5707H3.97718C3.57613 14.5626 3.18494 14.6954 2.87171 14.946C2.55848 15.1966 2.34304 15.549 2.26289 15.9421L0.857178 23.1421H11.1429L9.70289 15.9421Z" stroke="white" stroke-width="1.5" stroke-linecap="round" stroke-linejoin="round"/>
<path d="M21.7029 15.9421C21.6227 15.549 21.4073 15.1966 21.0941 14.946C20.7808 14.6954 20.3897 14.5626 19.9886 14.5707H15.9772C15.5761 14.5626 15.1849 14.6954 14.8717 14.946C14.5585 15.1966 14.343 15.549 14.2629 15.9421L12.8572 23.1421H23.1429L21.7029 15.9421Z" stroke="white" stroke-width="1.5" stroke-linecap="round" stroke-linejoin="round"/>
<path d="M17.1429 14.5718L15.7029 7.37178C15.6227 6.97873 15.4073 6.62624 15.0941 6.37565C14.7808 6.12507 14.3897 5.99226 13.9886 6.00035H9.97718C9.57613 5.99226 9.18494 6.12507 8.87171 6.37565C8.55848 6.62624 8.34304 6.97873 8.26289 7.37178L6.85718 14.5718" stroke="white" stroke-width="1.5" stroke-linecap="round" stroke-linejoin="round"/>
<path d="M8.02283 14.5703H15.9771" stroke="white" stroke-width="1.5" stroke-linecap="round" stroke-linejoin="round"/>
</svg>
