<svg width="24" height="24" viewBox="0 0 24 24" fill="none" xmlns="http://www.w3.org/2000/svg">
<path d="M15.4286 0.855469V11.1412L21.5829 18.9755C21.8827 19.3548 22.0694 19.811 22.1217 20.2917C22.174 20.7724 22.0897 21.2581 21.8785 21.693C21.6673 22.128 21.3377 22.4945 20.9276 22.7507C20.5175 23.0068 20.0435 23.1422 19.56 23.1412H4.44003C3.95651 23.1422 3.48252 23.0068 3.07243 22.7507C2.66235 22.4945 2.33279 22.128 2.12158 21.693C1.91038 21.2581 1.82608 20.7724 1.87836 20.2917C1.93064 19.811 2.11739 19.3548 2.41717 18.9755L8.57145 11.1412V0.855469" stroke="white" stroke-width="1.5" stroke-linecap="round" stroke-linejoin="round"/>
<path d="M6 0.855469H18" stroke="white" stroke-width="1.5" stroke-linecap="round" stroke-linejoin="round"/>
</svg>
