<svg width="30" height="30" viewBox="0 0 30 30" fill="none" xmlns="http://www.w3.org/2000/svg">
<path d="M22.8 3.30029H7.19997C6.84032 3.31017 6.48804 3.40454 6.17162 3.57578C5.8552 3.74702 5.58352 3.99032 5.37854 4.28601L1.47854 9.68601C1.18895 10.0952 1.04432 10.5895 1.06762 11.0903C1.09091 11.591 1.28079 12.0697 1.60711 12.4503L13.3071 25.9289C13.5074 26.187 13.7641 26.3958 14.0575 26.5395C14.3509 26.6832 14.6733 26.7579 15 26.7579C15.3267 26.7579 15.649 26.6832 15.9425 26.5395C16.2359 26.3958 16.4925 26.187 16.6928 25.9289L28.3928 12.4503C28.7192 12.0697 28.909 11.591 28.9323 11.0903C28.9556 10.5895 28.811 10.0952 28.5214 9.68601L24.6214 4.28601C24.4164 3.99032 24.1447 3.74702 23.8283 3.57578C23.5119 3.40454 23.1596 3.31017 22.8 3.30029V3.30029Z" stroke="white" stroke-width="1.5" stroke-linecap="round" stroke-linejoin="round"/>
<path d="M13.8857 3.27881L8.6571 11.3788L15 26.7002" stroke="white" stroke-width="1.5" stroke-linecap="round" stroke-linejoin="round"/>
<path d="M16.1786 3.27881L21.3857 11.3788L15 26.7002" stroke="white" stroke-width="1.5" stroke-linecap="round" stroke-linejoin="round"/>
<path d="M1.11426 11.3789H28.8857" stroke="white" stroke-width="1.5" stroke-linecap="round" stroke-linejoin="round"/>
</svg>
