<svg width="40" height="40" viewBox="0 0 40 40" fill="none" xmlns="http://www.w3.org/2000/svg">
<g clip-path="url(#clip0_319_246)">
<path d="M20 0.678711C23.6086 0.678785 27.0693 2.11242 29.6211 4.66406C32.1729 7.2159 33.6064 10.6773 33.6064 14.2861V16.3926H35.7139C36.6704 16.3926 37.5882 16.7729 38.2646 17.4492C38.9411 18.1256 39.3212 19.0434 39.3213 20V24.2852C39.3213 25.2418 38.9411 26.1595 38.2646 26.8359C37.5882 27.5124 36.6705 27.8926 35.7139 27.8926H33.6064V29.2852C33.6064 30.9995 32.9261 32.6442 31.7139 33.8564C30.6652 34.9051 29.2931 35.5552 27.832 35.7119C27.6846 36.5937 27.2683 37.4152 26.6279 38.0557C25.8177 38.8659 24.7181 39.3211 23.5723 39.3213H19.2861C18.1402 39.3213 17.0408 38.8658 16.2305 38.0557C15.4202 37.2453 14.9649 36.146 14.9648 35C14.9649 33.8539 15.4201 32.7547 16.2305 31.9443C17.0408 31.134 18.1401 30.6787 19.2861 30.6787H23.5723C24.7181 30.6789 25.8177 31.1341 26.6279 31.9443C27.2477 32.5643 27.659 33.3535 27.8184 34.2031C28.8855 34.0565 29.8831 33.5662 30.6533 32.7959C31.5842 31.8649 32.1064 30.6017 32.1064 29.2852V27.7568C31.8128 27.649 31.5418 27.4802 31.3164 27.2549C30.908 26.8463 30.6787 26.2915 30.6787 25.7139V18.5713C30.6788 17.9936 30.9079 17.4388 31.3164 17.0303C31.5418 16.8049 31.8127 16.6362 32.1064 16.5283V14.2861C32.1064 11.0751 30.8311 7.99514 28.5605 5.72461C26.2901 3.45428 23.2108 2.17878 20 2.17871C16.7891 2.17878 13.7089 3.45414 11.4385 5.72461C9.1681 7.99512 7.89258 11.0752 7.89258 14.2861V16.5283C8.18666 16.6361 8.45794 16.8047 8.68359 17.0303C9.0921 17.4388 9.32122 17.9936 9.32129 18.5713V25.7139C9.32129 26.2915 9.092 26.8463 8.68359 27.2549C8.2751 27.6633 7.72022 27.8925 7.14258 27.8926H4.28613C3.32946 27.8926 2.41182 27.5124 1.73535 26.8359C1.05888 26.1595 0.678711 25.2418 0.678711 24.2852V20C0.678776 19.0434 1.05894 18.1256 1.73535 17.4492C2.4118 16.7729 3.32957 16.3926 4.28613 16.3926H6.39258V14.2861C6.39258 10.6774 7.82625 7.21587 10.3779 4.66406C12.9297 2.11229 16.3912 0.678776 20 0.678711ZM19.2861 32.1787C18.538 32.1787 17.8201 32.4759 17.291 33.0049C16.7619 33.534 16.4649 34.2518 16.4648 35C16.4649 35.7481 16.762 36.4661 17.291 36.9951C17.8201 37.524 18.5381 37.8213 19.2861 37.8213H23.5723C24.3203 37.8211 25.0384 37.5241 25.5674 36.9951C26.0942 36.4682 26.3902 35.7537 26.3926 35.0088V34.9902C26.39 34.2456 26.094 33.5317 25.5674 33.0049C25.0384 32.4759 24.3203 32.1789 23.5723 32.1787H19.2861ZM4.28613 17.8926C3.7274 17.8926 3.19104 18.1148 2.7959 18.5098C2.40079 18.9049 2.17878 19.4412 2.17871 20V24.2852C2.17871 24.844 2.40073 25.3802 2.7959 25.7754C3.19106 26.1706 3.72728 26.3926 4.28613 26.3926H7.14258C7.32246 26.3925 7.49585 26.3206 7.62305 26.1934C7.74993 26.0662 7.82129 25.8936 7.82129 25.7139V18.5713C7.82122 18.3916 7.75003 18.219 7.62305 18.0918C7.49585 17.9646 7.32246 17.8926 7.14258 17.8926H4.28613ZM32.8574 17.8926C32.6775 17.8926 32.5042 17.9646 32.377 18.0918C32.25 18.219 32.1788 18.3916 32.1787 18.5713V25.7139C32.1787 25.8936 32.2501 26.0662 32.377 26.1934C32.5042 26.3206 32.6775 26.3925 32.8574 26.3926H35.7139C36.2727 26.3926 36.8089 26.1706 37.2041 25.7754C37.5993 25.3802 37.8213 24.844 37.8213 24.2852V20C37.8212 19.4412 37.5992 18.9049 37.2041 18.5098C36.809 18.1148 36.2726 17.8926 35.7139 17.8926H32.8574ZM24.2861 20.6787C24.7001 20.679 25.0361 21.0147 25.0361 21.4287C25.036 22.7125 24.2943 23.6412 23.3291 24.2119C22.3812 24.7723 21.1681 25.0282 20.001 25.0283C18.8339 25.0283 17.6209 24.7721 16.6729 24.2119C15.7074 23.6412 14.9649 22.7127 14.9648 21.4287C14.9648 21.0145 15.3006 20.6787 15.7148 20.6787C16.1288 20.679 16.4648 21.0147 16.4648 21.4287C16.4649 22.0445 16.7941 22.5417 17.4355 22.9209C18.0945 23.3102 19.0257 23.5283 20.001 23.5283C20.9761 23.5282 21.9067 23.3103 22.5654 22.9209C23.2068 22.5417 23.536 22.0444 23.5361 21.4287C23.5361 21.0145 23.872 20.6788 24.2861 20.6787ZM15.7148 10.6787C16.1288 10.679 16.4648 11.0147 16.4648 11.4287V15.7148C16.4645 16.1286 16.1286 16.4646 15.7148 16.4648C15.3009 16.4648 14.9652 16.1288 14.9648 15.7148V11.4287C14.9648 11.0145 15.3006 10.6787 15.7148 10.6787ZM24.2861 10.6787C24.7001 10.679 25.0361 11.0147 25.0361 11.4287V15.7148C25.0358 16.1286 24.6999 16.4646 24.2861 16.4648C23.8721 16.4648 23.5365 16.1288 23.5361 15.7148V11.4287C23.5361 11.0145 23.8719 10.6787 24.2861 10.6787Z" fill="#13E0B9"/>
</g>
<defs>
<clipPath id="clip0_319_246">
<rect width="40" height="40" fill="white"/>
</clipPath>
</defs>
</svg>
