<svg width="24" height="24" viewBox="0 0 24 24" fill="none" xmlns="http://www.w3.org/2000/svg">
<g clip-path="url(#clip0_150_31)">
<path d="M17.3143 6.68359C19.1658 7.47479 21.2481 7.53603 23.1429 6.85502" stroke="white" stroke-width="1.5" stroke-linecap="round" stroke-linejoin="round"/>
<path d="M6.85716 23.1427C7.53755 21.2419 7.47633 19.1545 6.68573 17.2969C6.0669 15.8179 5.89947 14.1888 6.20452 12.6147C6.50957 11.0407 7.27345 9.59206 8.40001 8.45123C9.55487 7.30831 11.0222 6.53287 12.6172 6.22266" stroke="white" stroke-width="1.5" stroke-linecap="round" stroke-linejoin="round"/>
<path d="M11.3143 17.7755C12.917 17.4627 14.3907 16.6811 15.5486 15.5298C16.6771 14.3901 17.4423 12.9415 17.7475 11.3669C18.0526 9.79239 17.884 8.16272 17.2629 6.68404C16.4884 4.82602 16.4455 2.74379 17.1429 0.855469" stroke="white" stroke-width="1.5" stroke-linecap="round" stroke-linejoin="round"/>
<path d="M0.857147 17.1403C2.75272 16.4561 4.83833 16.5235 6.68572 17.3289" stroke="white" stroke-width="1.5" stroke-linecap="round" stroke-linejoin="round"/>
<path d="M8.46857 8.44922L15.5486 15.5292" stroke="white" stroke-width="1.5" stroke-linecap="round" stroke-linejoin="round"/>
</g>
<defs>
<clipPath id="clip0_150_31">
<rect width="24" height="24" fill="white"/>
</clipPath>
</defs>
</svg>
