<svg width="30" height="30" viewBox="0 0 30 30" fill="none" xmlns="http://www.w3.org/2000/svg">
<g clip-path="url(#clip0_324_443)">
<path d="M21.6428 8.35718C23.9572 9.34617 26.5601 9.42272 28.9285 8.57146" stroke="white" stroke-width="1.5" stroke-linecap="round" stroke-linejoin="round"/>
<path d="M8.5714 28.9286C9.42189 26.5526 9.34537 23.9434 8.35712 21.6214C7.58358 19.7726 7.3743 17.7362 7.7556 15.7686C8.13691 13.8011 9.09177 11.9903 10.5 10.5643C11.9435 9.13563 13.7778 8.16633 15.7714 7.77856" stroke="white" stroke-width="1.5" stroke-linecap="round" stroke-linejoin="round"/>
<path d="M14.1428 22.2215C16.1461 21.8305 17.9883 20.8535 19.4357 19.4144C20.8463 17.9899 21.8029 16.179 22.1843 14.2109C22.5657 12.2427 22.3549 10.2056 21.5785 8.35725C20.6104 6.03473 20.5568 3.43193 21.4285 1.07153" stroke="white" stroke-width="1.5" stroke-linecap="round" stroke-linejoin="round"/>
<path d="M1.07141 21.4288C3.44088 20.5735 6.04789 20.6578 8.35713 21.6645" stroke="white" stroke-width="1.5" stroke-linecap="round" stroke-linejoin="round"/>
<path d="M10.5857 10.5645L19.4357 19.4145" stroke="white" stroke-width="1.5" stroke-linecap="round" stroke-linejoin="round"/>
</g>
<defs>
<clipPath id="clip0_324_443">
<rect width="30" height="30" fill="white"/>
</clipPath>
</defs>
</svg>
