<svg width="24" height="24" viewBox="0 0 24 24" fill="none" xmlns="http://www.w3.org/2000/svg">
<g clip-path="url(#clip0_319_577)">
<path d="M12.8057 11.8286C12.5515 11.939 12.2772 11.996 12 11.996C11.7228 11.996 11.4486 11.939 11.1943 11.8286L1.42288 7.30288C1.2642 7.22285 1.13086 7.10034 1.0377 6.94901C0.944532 6.79767 0.895203 6.62345 0.895203 6.44573C0.895203 6.26802 0.944532 6.0938 1.0377 5.94246C1.13086 5.79113 1.2642 5.66862 1.42288 5.58859L11.1943 1.02859C11.4486 0.91818 11.7228 0.861206 12 0.861206C12.2772 0.861206 12.5515 0.91818 12.8057 1.02859L22.5772 5.55431C22.7358 5.63434 22.8692 5.75684 22.9623 5.90818C23.0555 6.05951 23.1048 6.23374 23.1048 6.41145C23.1048 6.58916 23.0555 6.76339 22.9623 6.91472C22.8692 7.06606 22.7358 7.18856 22.5772 7.26859L12.8057 11.8286Z" stroke="white" stroke-width="1.5" stroke-linecap="round" stroke-linejoin="round"/>
<path d="M23.1429 12.6L12.6857 17.4171C12.4624 17.519 12.2198 17.5717 11.9743 17.5717C11.7288 17.5717 11.4862 17.519 11.2629 17.4171L0.857147 12.6" stroke="white" stroke-width="1.5" stroke-linecap="round" stroke-linejoin="round"/>
<path d="M23.1429 18.1715L12.6857 22.9887C12.4624 23.0905 12.2198 23.1432 11.9743 23.1432C11.7288 23.1432 11.4862 23.0905 11.2629 22.9887L0.857147 18.1715" stroke="white" stroke-width="1.5" stroke-linecap="round" stroke-linejoin="round"/>
</g>
<defs>
<clipPath id="clip0_319_577">
<rect width="24" height="24" fill="white"/>
</clipPath>
</defs>
</svg>
