<svg width="24" height="24" viewBox="0 0 24 24" fill="none" xmlns="http://www.w3.org/2000/svg">
<g clip-path="url(#clip0_705_325)">
<path d="M5.57142 10.286C8.17505 10.286 10.2857 8.17534 10.2857 5.57171C10.2857 2.96808 8.17505 0.857422 5.57142 0.857422C2.9678 0.857422 0.85714 2.96808 0.85714 5.57171C0.85714 8.17534 2.9678 10.286 5.57142 10.286Z" stroke="white" stroke-linecap="round" stroke-linejoin="round"/>
<path d="M18.4286 10.286C21.0322 10.286 23.1428 8.17534 23.1428 5.57171C23.1428 2.96808 21.0322 0.857422 18.4286 0.857422C15.8249 0.857422 13.7143 2.96808 13.7143 5.57171C13.7143 8.17534 15.8249 10.286 18.4286 10.286Z" stroke="white" stroke-linecap="round" stroke-linejoin="round"/>
<path d="M5.57142 23.1434C8.17505 23.1434 10.2857 21.0328 10.2857 18.4291C10.2857 15.8255 8.17505 13.7148 5.57142 13.7148C2.9678 13.7148 0.85714 15.8255 0.85714 18.4291C0.85714 21.0328 2.9678 23.1434 5.57142 23.1434Z" stroke="white" stroke-linecap="round" stroke-linejoin="round"/>
<path d="M18.4286 23.1434C21.0322 23.1434 23.1428 21.0328 23.1428 18.4291C23.1428 15.8255 21.0322 13.7148 18.4286 13.7148C15.8249 13.7148 13.7143 15.8255 13.7143 18.4291C13.7143 21.0328 15.8249 23.1434 18.4286 23.1434Z" stroke="white" stroke-linecap="round" stroke-linejoin="round"/>
</g>
<defs>
<clipPath id="clip0_705_325">
<rect width="24" height="24" fill="white"/>
</clipPath>
</defs>
</svg>
