<svg width="20" height="20" viewBox="0 0 20 20" fill="none" xmlns="http://www.w3.org/2000/svg">
<g clip-path="url(#clip0_598_176)">
<path d="M3.92864 13.2137C5.70384 13.2137 7.14293 11.7746 7.14293 9.99944C7.14293 8.22424 5.70384 6.78516 3.92864 6.78516C2.15344 6.78516 0.714355 8.22424 0.714355 9.99944C0.714355 11.7746 2.15344 13.2137 3.92864 13.2137Z" stroke="white" stroke-width="1.5" stroke-linecap="round" stroke-linejoin="round"/>
<path d="M16.0715 19.2879C17.8467 19.2879 19.2857 17.8489 19.2857 16.0737C19.2857 14.2985 17.8467 12.8594 16.0715 12.8594C14.2963 12.8594 12.8572 14.2985 12.8572 16.0737C12.8572 17.8489 14.2963 19.2879 16.0715 19.2879Z" stroke="white" stroke-width="1.5" stroke-linecap="round" stroke-linejoin="round"/>
<path d="M16.0715 7.14341C17.8467 7.14341 19.2857 5.70433 19.2857 3.92913C19.2857 2.15393 17.8467 0.714844 16.0715 0.714844C14.2963 0.714844 12.8572 2.15393 12.8572 3.92913C12.8572 5.70433 14.2963 7.14341 16.0715 7.14341Z" stroke="white" stroke-width="1.5" stroke-linecap="round" stroke-linejoin="round"/>
<path d="M6.80005 8.57366L13.2 5.35938" stroke="white" stroke-width="1.5" stroke-linecap="round" stroke-linejoin="round"/>
<path d="M6.80005 11.4297L13.2 14.644" stroke="white" stroke-width="1.5" stroke-linecap="round" stroke-linejoin="round"/>
</g>
<defs>
<clipPath id="clip0_598_176">
<rect width="20" height="20" fill="white"/>
</clipPath>
</defs>
</svg>
