<svg width="26" height="26" viewBox="0 0 26 26" fill="none" xmlns="http://www.w3.org/2000/svg">
<g clip-path="url(#clip0_378_490)">
<path d="M16.2686 24.143C17.4123 24.8808 18.7751 25.2023 20.128 25.0535C21.4808 24.9047 22.7412 24.2946 23.6972 23.3258L24.5329 22.5087C24.8993 22.1339 25.1044 21.6306 25.1044 21.1065C25.1044 20.5824 24.8993 20.0791 24.5329 19.7044L20.9857 16.1944C20.6141 15.8292 20.1139 15.6245 19.5929 15.6245C19.0718 15.6245 18.5716 15.8292 18.2 16.1944V16.1944C17.8253 16.5608 17.322 16.7659 16.7979 16.7659C16.2738 16.7659 15.7705 16.5608 15.3957 16.1944L9.8243 10.623C9.63844 10.4398 9.49085 10.2215 9.39011 9.98081C9.28937 9.7401 9.23749 9.48176 9.23749 9.22082C9.23749 8.95988 9.28937 8.70154 9.39011 8.46083C9.49085 8.22012 9.63844 8.00184 9.8243 7.81868V7.81868C10.1895 7.44706 10.3942 6.94686 10.3942 6.42582C10.3942 5.90478 10.1895 5.40458 9.8243 5.03296L6.29572 1.50439C5.92097 1.13801 5.41768 0.932861 4.89358 0.932861C4.36948 0.932861 3.8662 1.13801 3.49144 1.50439L2.6743 2.34011C1.70551 3.29606 1.09542 4.55642 0.946601 5.90929C0.797786 7.26215 1.11932 8.625 1.85715 9.76868C5.70152 15.4343 10.593 20.3132 16.2686 24.143V24.143Z" stroke="#13E0B9" stroke-width="1.5" stroke-linecap="round" stroke-linejoin="round"/>
</g>
<defs>
<clipPath id="clip0_378_490">
<rect width="26" height="26" fill="white"/>
</clipPath>
</defs>
</svg>
