<svg width="20" height="20" viewBox="0 0 20 20" fill="none" xmlns="http://www.w3.org/2000/svg">
  <path d="M3.75 10C3.75 6.54822 6.54822 3.75 10 3.75C13.4518 3.75 16.25 6.54822 16.25 10V11.875C16.25 12.5654 15.6904 13.125 15 13.125H13.75C13.0596 13.125 12.5 12.5654 12.5 11.875V9.375C12.5 8.68464 13.0596 8.125 13.75 8.125H16.0692" stroke="#13E0B9" stroke-width="1.8" stroke-linecap="round" stroke-linejoin="round"/>
  <path d="M3.93079 8.125H6.25C6.94036 8.125 7.5 8.68464 7.5 9.375V11.875C7.5 12.5654 6.94036 13.125 6.25 13.125H5C4.30964 13.125 3.75 12.5654 3.75 11.875V10" stroke="#13E0B9" stroke-width="1.8" stroke-linecap="round" stroke-linejoin="round"/>
  <path d="M15.625 13.125V13.75C15.625 15.1307 14.5057 16.25 13.125 16.25H10.625" stroke="#13E0B9" stroke-width="1.8" stroke-linecap="round" stroke-linejoin="round"/>
</svg>
