<svg width="39" height="50" viewBox="0 0 39 50" fill="none" xmlns="http://www.w3.org/2000/svg">
<path d="M16.46 14.3936L15.29 14.7041C11.7528 15.6402 8.68296 17.7334 6.5127 20.5557C4.39694 23.3081 3.1377 26.7607 3.1377 30.5137C3.1378 35.0291 4.96774 39.1162 7.92578 42.0742C10.8839 45.0324 14.9712 46.8623 19.4854 46.8623C24.0009 46.8623 28.0901 45.0323 31.0469 42.0742C33.6592 39.4618 35.3913 35.9705 35.7607 32.082H19.4854V28.9463H38.9092C38.9497 29.464 38.9717 29.9858 38.9717 30.5146C38.9717 35.8948 36.7893 40.7658 33.2646 44.292C29.737 47.8182 24.8671 50 19.4854 50C14.105 50 9.23426 47.8182 5.70801 44.292C2.18036 40.7657 0 35.895 0 30.5146C2.16058e-06 26.0537 1.50577 21.9381 4.03711 18.6455C6.37814 15.6021 9.60075 13.2695 13.3242 12.0283V3.13574H10.6797V0H16.46V14.3936ZM10.375 26.2236C11.6624 26.2236 12.71 27.2717 12.71 28.5576C12.7097 29.8448 11.6608 30.8926 10.375 30.8926C9.08917 30.8926 8.04026 29.8434 8.04004 28.5576C8.04004 27.2717 9.08904 26.2236 10.375 26.2236ZM28.291 3.13574H25.6475V12.0254C29.3696 13.2666 32.5931 15.5991 34.9355 18.6426C36.5531 20.7471 37.7504 23.1892 38.4053 25.8408H35.1592C34.5855 23.9028 33.6586 22.1159 32.458 20.5557C30.2891 17.7334 27.219 15.6402 23.6816 14.7041L22.5107 14.3936V0H28.291V3.13574ZM16.8447 22.4307C17.6044 22.4307 18.2224 23.0504 18.2227 23.8086C18.2227 24.5684 17.6031 25.1874 16.8447 25.1875C16.0849 25.1875 15.4654 24.5684 15.4668 23.8086C15.467 23.0503 16.085 22.4307 16.8447 22.4307ZM11.79 20.5186C12.2741 20.5187 12.6699 20.9129 12.6699 21.3984C12.6698 21.8838 12.2754 22.2782 11.79 22.2783C11.3045 22.2783 10.9089 21.8825 10.9102 21.3984C10.9102 20.9143 11.3045 20.5186 11.79 20.5186Z" fill="#13E0B9"/>
</svg>
