<svg width="30" height="30" viewBox="0 0 30 30" fill="none" xmlns="http://www.w3.org/2000/svg">
<path d="M9.64272 27.8572C14.3766 27.8572 18.2141 24.0197 18.2141 19.2858C18.2141 14.5519 14.3766 10.7144 9.64272 10.7144C4.90885 10.7144 1.07129 14.5519 1.07129 19.2858C1.07129 24.0197 4.90885 27.8572 9.64272 27.8572Z" stroke="white" stroke-width="1.5" stroke-linecap="round" stroke-linejoin="round"/>
<path d="M20.3571 27.8572C25.0909 27.8572 28.9285 24.0197 28.9285 19.2858C28.9285 14.5519 25.0909 10.7144 20.3571 10.7144C15.6232 10.7144 11.7856 14.5519 11.7856 19.2858C11.7856 24.0197 15.6232 27.8572 20.3571 27.8572Z" stroke="white" stroke-width="1.5" stroke-linecap="round" stroke-linejoin="round"/>
<path d="M14.9997 19.2859C19.7335 19.2859 23.5711 15.4484 23.5711 10.7145C23.5711 5.98063 19.7335 2.14307 14.9997 2.14307C10.2658 2.14307 6.42822 5.98063 6.42822 10.7145C6.42822 15.4484 10.2658 19.2859 14.9997 19.2859Z" stroke="white" stroke-width="1.5" stroke-linecap="round" stroke-linejoin="round"/>
</svg>
