<svg width="30" height="30" viewBox="0 0 30 30" fill="none" xmlns="http://www.w3.org/2000/svg">
<path d="M19.2857 1.07153V13.9287L26.9785 23.7215C27.3533 24.1957 27.5867 24.766 27.652 25.3668C27.7174 25.9677 27.612 26.5748 27.348 27.1185C27.084 27.6621 26.6721 28.1204 26.1595 28.4406C25.6469 28.7607 25.0544 28.9299 24.45 28.9287H5.54997C4.94558 28.9299 4.35309 28.7607 3.84048 28.4406C3.32787 28.1204 2.91593 27.6621 2.65192 27.1185C2.38791 26.5748 2.28254 25.9677 2.34789 25.3668C2.41324 24.766 2.64668 24.1957 3.0214 23.7215L10.7143 13.9287V1.07153" stroke="white" stroke-width="1.5" stroke-linecap="round" stroke-linejoin="round"/>
<path d="M7.5 1.07153H22.5" stroke="white" stroke-width="1.5" stroke-linecap="round" stroke-linejoin="round"/>
</svg>
