<svg width="20" height="20" viewBox="0 0 20 20" fill="none" xmlns="http://www.w3.org/2000/svg">
  <path d="M7.5 5.625V5C7.5 4.30964 8.05964 3.75 8.75 3.75H11.25C11.9404 3.75 12.5 4.30964 12.5 5V5.625" stroke="#13E0B9" stroke-width="1.8" stroke-linecap="round" stroke-linejoin="round"/>
  <path d="M3.75 7.5C3.75 6.46447 4.58947 5.625 5.625 5.625H14.375C15.4105 5.625 16.25 6.46447 16.25 7.5V13.125C16.25 14.1605 15.4105 15 14.375 15H5.625C4.58947 15 3.75 14.1605 3.75 13.125V7.5Z" stroke="#13E0B9" stroke-width="1.8" stroke-linecap="round" stroke-linejoin="round"/>
  <path d="M3.75 9.375C5.46868 10.344 7.40931 10.8526 9.375 10.8526C11.3407 10.8526 13.2813 10.344 15 9.375" stroke="#13E0B9" stroke-width="1.8" stroke-linecap="round" stroke-linejoin="round"/>
  <path d="M9.375 9.375H10.625" stroke="#13E0B9" stroke-width="1.8" stroke-linecap="round"/>
</svg>
