<svg width="27" height="27" viewBox="0 0 27 27" fill="none" xmlns="http://www.w3.org/2000/svg">
<g clip-path="url(#clip0_636_340)">
<path d="M16.8935 25.0715C18.0812 25.8378 19.4964 26.1717 20.9013 26.0171C22.3062 25.8626 23.6151 25.229 24.6078 24.223L25.4756 23.3744C25.8561 22.9852 26.0692 22.4626 26.0692 21.9183C26.0692 21.3741 25.8561 20.8514 25.4756 20.4623L21.7921 16.8173C21.4062 16.438 20.8867 16.2255 20.3456 16.2255C19.8046 16.2255 19.2851 16.438 18.8992 16.8173V16.8173C18.51 17.1977 17.9874 17.4108 17.4431 17.4108C16.8989 17.4108 16.3762 17.1977 15.9871 16.8173L10.2014 11.0315C10.0083 10.8413 9.85508 10.6147 9.75046 10.3647C9.64585 10.1147 9.59197 9.84645 9.59197 9.57548C9.59197 9.3045 9.64585 9.03622 9.75046 8.78625C9.85508 8.53628 10.0083 8.30961 10.2014 8.11941V8.11941C10.5806 7.73349 10.7931 7.21406 10.7931 6.67298C10.7931 6.1319 10.5806 5.61246 10.2014 5.22655L6.53707 1.56226C6.14789 1.18178 5.62525 0.96875 5.08099 0.96875C4.53674 0.96875 4.0141 1.18178 3.62492 1.56226L2.77635 2.43012C1.77031 3.42284 1.13675 4.73168 0.982209 6.13658C0.82767 7.54147 1.16158 8.95674 1.92778 10.1444C5.92001 16.028 10.9997 21.0945 16.8935 25.0715V25.0715Z" stroke="white" stroke-width="1.5" stroke-linecap="round" stroke-linejoin="round"/>
</g>
<defs>
<clipPath id="clip0_636_340">
<rect width="27" height="27" fill="white"/>
</clipPath>
</defs>
</svg>
