<svg width="24" height="24" viewBox="0 0 24 24" fill="none" xmlns="http://www.w3.org/2000/svg">
<path d="M8.966 3.85693L9.70314 1.95408C9.82746 1.6319 10.0462 1.35478 10.3307 1.15901C10.6151 0.963243 10.9521 0.857954 11.2974 0.856934H12.7031C13.0485 0.857954 13.3854 0.963243 13.6699 1.15901C13.9544 1.35478 14.1731 1.6319 14.2974 1.95408L15.0346 3.85693L17.5374 5.29693L19.5603 4.98836C19.8971 4.94264 20.2399 4.99809 20.5452 5.14766C20.8504 5.29723 21.1043 5.53416 21.2746 5.82836L21.9603 7.02836C22.136 7.32725 22.2169 7.67238 22.1925 8.01823C22.168 8.36407 22.0392 8.69436 21.8231 8.96551L20.5717 10.5598V13.4398L21.8574 15.0341C22.0735 15.3052 22.2023 15.6355 22.2267 15.9814C22.2512 16.3272 22.1703 16.6723 21.9946 16.9712L21.3089 18.1712C21.1386 18.4654 20.8847 18.7024 20.5795 18.8519C20.2742 19.0015 19.9314 19.0569 19.5946 19.0112L17.5717 18.7026L15.0689 20.1426L14.3317 22.0455C14.2074 22.3677 13.9887 22.6448 13.7042 22.8406C13.4197 23.0363 13.0828 23.1416 12.7374 23.1426H11.2974C10.9521 23.1416 10.6151 23.0363 10.3307 22.8406C10.0462 22.6448 9.82746 22.3677 9.70314 22.0455L8.966 20.1426L6.46314 18.7026L4.44028 19.0112C4.10345 19.0569 3.76064 19.0015 3.45539 18.8519C3.15015 18.7024 2.89626 18.4654 2.726 18.1712L2.04028 16.9712C1.86457 16.6723 1.78361 16.3272 1.8081 15.9814C1.83258 15.6355 1.96136 15.3052 2.17742 15.0341L3.42885 13.4398V10.5598L2.14314 8.96551C1.92707 8.69436 1.7983 8.36407 1.77381 8.01823C1.74933 7.67238 1.83028 7.32725 2.006 7.02836L2.69171 5.82836C2.86198 5.53416 3.11587 5.29723 3.42111 5.14766C3.72635 4.99809 4.06917 4.94264 4.406 4.98836L6.42885 5.29693L8.966 3.85693Z" stroke="white" stroke-width="1.5" stroke-linecap="round" stroke-linejoin="round"/>
<path d="M12.0003 17.1426C14.8406 17.1426 17.1431 14.8401 17.1431 11.9998C17.1431 9.15947 14.8406 6.85693 12.0003 6.85693C9.15996 6.85693 6.85742 9.15947 6.85742 11.9998C6.85742 14.8401 9.15996 17.1426 12.0003 17.1426Z" stroke="white" stroke-width="1.5" stroke-linecap="round" stroke-linejoin="round"/>
<path d="M12 6.85693V11.9998H17.1429" stroke="white" stroke-width="1.5" stroke-linecap="round" stroke-linejoin="round"/>
<path d="M11.9995 12L8.36523 15.6343" stroke="white" stroke-width="1.5" stroke-linecap="round" stroke-linejoin="round"/>
</svg>
