<svg width="24" height="24" viewBox="0 0 24 24" fill="none" xmlns="http://www.w3.org/2000/svg">
<path d="M7.71456 22.2866C11.5017 22.2866 14.5717 19.2165 14.5717 15.4294C14.5717 11.6423 11.5017 8.57227 7.71456 8.57227C3.92747 8.57227 0.857422 11.6423 0.857422 15.4294C0.857422 19.2165 3.92747 22.2866 7.71456 22.2866Z" stroke="white" stroke-linecap="round" stroke-linejoin="round"/>
<path d="M16.286 22.2866C20.0731 22.2866 23.1431 19.2165 23.1431 15.4294C23.1431 11.6423 20.0731 8.57227 16.286 8.57227C12.4989 8.57227 9.42883 11.6423 9.42883 15.4294C9.42883 19.2165 12.4989 22.2866 16.286 22.2866Z" stroke="white" stroke-linecap="round" stroke-linejoin="round"/>
<path d="M12.0007 15.4291C15.7878 15.4291 18.8578 12.3591 18.8578 8.57199C18.8578 4.78489 15.7878 1.71484 12.0007 1.71484C8.2136 1.71484 5.14355 4.78489 5.14355 8.57199C5.14355 12.3591 8.2136 15.4291 12.0007 15.4291Z" stroke="white" stroke-linecap="round" stroke-linejoin="round"/>
</svg>
