<svg width="25" height="25" viewBox="0 0 25 25" fill="none" xmlns="http://www.w3.org/2000/svg">
<g clip-path="url(#clip0_655_533)">
<path d="M18.0352 6.96436C19.9638 7.78851 22.1329 7.85231 24.1066 7.14293" stroke="white" stroke-width="1.5" stroke-linecap="round" stroke-linejoin="round"/>
<path d="M7.14304 24.1072C7.85178 22.1272 7.78801 19.9529 6.96447 18.0179C6.31986 16.4772 6.14545 14.7802 6.46321 13.1406C6.78096 11.5009 7.57668 9.99197 8.75018 8.80361C9.95316 7.61306 11.4817 6.80531 13.143 6.48218" stroke="white" stroke-width="1.5" stroke-linecap="round" stroke-linejoin="round"/>
<path d="M11.7852 18.5178C13.4546 18.192 14.9897 17.3778 16.1959 16.1785C17.3714 14.9914 18.1685 13.4824 18.4864 11.8423C18.8042 10.2021 18.6286 8.50455 17.9816 6.96425C17.1748 5.02882 17.1302 2.85982 17.8566 0.892822" stroke="white" stroke-width="1.5" stroke-linecap="round" stroke-linejoin="round"/>
<path d="M0.892578 17.8571C2.86714 17.1443 5.03965 17.2146 6.96401 18.0535" stroke="white" stroke-width="1.5" stroke-linecap="round" stroke-linejoin="round"/>
<path d="M8.82129 8.80347L16.1963 16.1785" stroke="white" stroke-width="1.5" stroke-linecap="round" stroke-linejoin="round"/>
</g>
<defs>
<clipPath id="clip0_655_533">
<rect width="25" height="25" fill="white"/>
</clipPath>
</defs>
</svg>
