<svg width="24" height="24" viewBox="0 0 24 24" fill="none" xmlns="http://www.w3.org/2000/svg">
<g clip-path="url(#clip0_705_666)">
<path d="M17.3143 6.68555C19.1658 7.47674 21.2481 7.53798 23.1428 6.85698" stroke="white" stroke-width="1.5" stroke-linecap="round" stroke-linejoin="round"/>
<path d="M6.8571 23.1427C7.53749 21.2419 7.47627 19.1545 6.68567 17.2969C6.06684 15.8179 5.89941 14.1888 6.20446 12.6147C6.5095 11.0407 7.27339 9.59206 8.39995 8.45123C9.55481 7.30831 11.0222 6.53287 12.6171 6.22266" stroke="white" stroke-width="1.5" stroke-linecap="round" stroke-linejoin="round"/>
<path d="M11.3143 17.7774C12.9169 17.4646 14.3906 16.683 15.5486 15.5317C16.6771 14.3921 17.4423 12.9434 17.7475 11.3689C18.0526 9.79434 17.8839 8.16468 17.2628 6.68599C16.4884 4.82798 16.4455 2.74574 17.1428 0.857422" stroke="white" stroke-width="1.5" stroke-linecap="round" stroke-linejoin="round"/>
<path d="M0.857117 17.1423C2.75269 16.458 4.8383 16.5255 6.68569 17.3308" stroke="white" stroke-width="1.5" stroke-linecap="round" stroke-linejoin="round"/>
<path d="M8.46857 8.45117L15.5486 15.5312" stroke="white" stroke-width="1.5" stroke-linecap="round" stroke-linejoin="round"/>
</g>
<defs>
<clipPath id="clip0_705_666">
<rect width="24" height="24" fill="white"/>
</clipPath>
</defs>
</svg>
