<svg width="30" height="30" viewBox="0 0 30 30" fill="none" xmlns="http://www.w3.org/2000/svg">
<g clip-path="url(#clip0_354_27529)">
<path d="M6.42855 28.9291C9.38722 28.9291 11.7857 26.5307 11.7857 23.572C11.7857 20.6133 9.38722 18.2148 6.42855 18.2148C3.46989 18.2148 1.07141 20.6133 1.07141 23.572C1.07141 26.5307 3.46989 28.9291 6.42855 28.9291Z" stroke="white" stroke-width="1.5" stroke-linecap="round" stroke-linejoin="round"/>
<path d="M11.786 6.42879V3.2145C11.786 2.64618 11.5602 2.10114 11.1583 1.69927C10.7565 1.29741 10.2114 1.07164 9.64312 1.07164H7.11455C6.6102 1.06247 6.11879 1.23151 5.72682 1.54901C5.33485 1.86651 5.06745 2.3121 4.97169 2.80736L1.17883 22.5002" stroke="white" stroke-width="1.5" stroke-linecap="round" stroke-linejoin="round"/>
<path d="M9.64282 11.7861H20.3571" stroke="white" stroke-width="1.5" stroke-linecap="round" stroke-linejoin="round"/>
<path d="M11.7853 17.1436V23.5721" stroke="white" stroke-width="1.5" stroke-linecap="round" stroke-linejoin="round"/>
<path d="M23.5711 28.9291C26.5298 28.9291 28.9283 26.5307 28.9283 23.572C28.9283 20.6133 26.5298 18.2148 23.5711 18.2148C20.6125 18.2148 18.214 20.6133 18.214 23.572C18.214 26.5307 20.6125 28.9291 23.5711 28.9291Z" stroke="white" stroke-width="1.5" stroke-linecap="round" stroke-linejoin="round"/>
<path d="M18.214 6.42879V3.2145C18.214 2.64618 18.4398 2.10114 18.8416 1.69927C19.2435 1.29741 19.7885 1.07164 20.3568 1.07164H22.8854C23.3898 1.06247 23.8812 1.23151 24.2731 1.54901C24.6651 1.86651 24.9325 2.3121 25.0283 2.80736L28.864 22.5002" stroke="white" stroke-width="1.5" stroke-linecap="round" stroke-linejoin="round"/>
<path d="M18.214 17.1436V23.5721" stroke="white" stroke-width="1.5" stroke-linecap="round" stroke-linejoin="round"/>
</g>
<defs>
<clipPath id="clip0_354_27529">
<rect width="30" height="30" fill="white"/>
</clipPath>
</defs>
</svg>
