<svg width="20" height="20" viewBox="0 0 20 20" fill="none" xmlns="http://www.w3.org/2000/svg">
<g clip-path="url(#clip0_635_369)">
<path d="M4.64244 8.5715C6.81213 8.5715 8.57101 6.81262 8.57101 4.64293C8.57101 2.47324 6.81213 0.714355 4.64244 0.714355C2.47275 0.714355 0.713867 2.47324 0.713867 4.64293C0.713867 6.81262 2.47275 8.5715 4.64244 8.5715Z" stroke="#13E0B9" stroke-width="1.5" stroke-linecap="round" stroke-linejoin="round"/>
<path d="M15.3563 8.5715C17.526 8.5715 19.2849 6.81262 19.2849 4.64293C19.2849 2.47324 17.526 0.714355 15.3563 0.714355C13.1866 0.714355 11.4277 2.47324 11.4277 4.64293C11.4277 6.81262 13.1866 8.5715 15.3563 8.5715Z" stroke="#13E0B9" stroke-width="1.5" stroke-linecap="round" stroke-linejoin="round"/>
<path d="M4.64244 19.2859C6.81213 19.2859 8.57101 17.527 8.57101 15.3573C8.57101 13.1876 6.81213 11.4287 4.64244 11.4287C2.47275 11.4287 0.713867 13.1876 0.713867 15.3573C0.713867 17.527 2.47275 19.2859 4.64244 19.2859Z" stroke="#13E0B9" stroke-width="1.5" stroke-linecap="round" stroke-linejoin="round"/>
<path d="M15.3563 19.2859C17.526 19.2859 19.2849 17.527 19.2849 15.3573C19.2849 13.1876 17.526 11.4287 15.3563 11.4287C13.1866 11.4287 11.4277 13.1876 11.4277 15.3573C11.4277 17.527 13.1866 19.2859 15.3563 19.2859Z" stroke="#13E0B9" stroke-width="1.5" stroke-linecap="round" stroke-linejoin="round"/>
</g>
<defs>
<clipPath id="clip0_635_369">
<rect width="20" height="20" fill="white"/>
</clipPath>
</defs>
</svg>
