<svg width="30" height="30" viewBox="0 0 30 30" fill="none" xmlns="http://www.w3.org/2000/svg">
<path d="M19.2857 1.07143V13.9286L26.9785 23.7214C27.3533 24.1956 27.5867 24.7659 27.652 25.3667C27.7174 25.9676 27.612 26.5747 27.348 27.1183C27.084 27.662 26.6721 28.1203 26.1595 28.4404C25.6469 28.7606 25.0544 28.9298 24.45 28.9286H5.54997C4.94558 28.9298 4.35309 28.7606 3.84048 28.4404C3.32787 28.1203 2.91593 27.662 2.65192 27.1183C2.38791 26.5747 2.28254 25.9676 2.34789 25.3667C2.41324 24.7659 2.64668 24.1956 3.0214 23.7214L10.7143 13.9286V1.07143" stroke="white" stroke-width="1.5" stroke-linecap="round" stroke-linejoin="round"/>
<path d="M7.5 1.07143H22.5" stroke="white" stroke-width="1.5" stroke-linecap="round" stroke-linejoin="round"/>
</svg>
