<svg width="20" height="20" viewBox="0 0 20 20" fill="none" xmlns="http://www.w3.org/2000/svg">
<g clip-path="url(#clip0_705_777)">
<path d="M10 14.3145V15.7573" stroke="white" stroke-width="1.5" stroke-linecap="round" stroke-linejoin="round"/>
<path d="M10 7.1582V8.50106" stroke="white" stroke-width="1.5" stroke-linecap="round" stroke-linejoin="round"/>
<path d="M10 19.2719C15 19.2719 18.5714 17.5004 18.5714 13.5576C18.5714 9.27187 16.4286 6.41473 12.1429 4.27188L13.8286 2.10045C13.9142 1.95798 13.9607 1.7954 13.9632 1.62919C13.9658 1.46298 13.9244 1.29905 13.8431 1.15401C13.7619 1.00898 13.6438 0.887994 13.5007 0.803323C13.3577 0.718651 13.1948 0.673303 13.0286 0.671875H6.97145C6.80522 0.673303 6.64233 0.718651 6.49929 0.803323C6.35624 0.887994 6.23812 1.00898 6.1569 1.15401C6.07568 1.29905 6.03425 1.46298 6.0368 1.62919C6.03936 1.7954 6.08581 1.95798 6.17145 2.10045L7.85716 4.28616C3.57145 6.4433 1.42859 9.30045 1.42859 13.5862C1.42859 17.5004 5.00002 19.2719 10 19.2719Z" stroke="white" stroke-width="1.5" stroke-linecap="round" stroke-linejoin="round"/>
<path d="M8.57148 13.6568C8.74579 13.8637 8.96517 14.0279 9.21281 14.1369C9.46044 14.2459 9.72974 14.2966 10 14.2854C10.4132 14.3135 10.8212 14.1804 11.1382 13.914C11.4552 13.6476 11.6566 13.2686 11.7 12.8568C11.6566 12.445 11.4552 12.066 11.1382 11.7996C10.8212 11.5332 10.4132 11.4001 10 11.4282C9.5869 11.4564 9.17892 11.3233 8.86188 11.0569C8.54485 10.7904 8.34346 10.4115 8.30005 9.99965C8.33997 9.58638 8.54039 9.20525 8.85826 8.93814C9.17612 8.67102 9.58608 8.53923 10 8.57108C10.2656 8.55484 10.5314 8.59766 10.7785 8.69646C11.0255 8.79527 11.2475 8.94761 11.4286 9.14251" stroke="white" stroke-width="1.5" stroke-linecap="round" stroke-linejoin="round"/>
</g>
<defs>
<clipPath id="clip0_705_777">
<rect width="20" height="20" fill="white"/>
</clipPath>
</defs>
</svg>
