<svg width="24" height="24" viewBox="0 0 24 24" fill="none" xmlns="http://www.w3.org/2000/svg">
<path d="M21.4285 7.71423H2.5714C1.62463 7.71423 0.857117 8.48175 0.857117 9.42852V21.4285C0.857117 22.3753 1.62463 23.1428 2.5714 23.1428H21.4285C22.3753 23.1428 23.1428 22.3753 23.1428 21.4285V9.42852C23.1428 8.48175 22.3753 7.71423 21.4285 7.71423Z" stroke="white" stroke-width="1.5" stroke-linecap="round" stroke-linejoin="round"/>
<path d="M0.857117 14.5714H23.1428" stroke="white" stroke-width="1.5" stroke-linecap="round" stroke-linejoin="round"/>
<path d="M12 12.8572V16.2857" stroke="white" stroke-width="1.5" stroke-linecap="round" stroke-linejoin="round"/>
<path d="M17.1428 7.71427C17.1428 6.3503 16.601 5.04219 15.6365 4.07772C14.6721 3.11325 13.3639 2.57141 12 2.57141V2.57141C10.636 2.57141 9.3279 3.11325 8.36342 4.07772C7.39895 5.04219 6.85712 6.3503 6.85712 7.71427" stroke="white" stroke-width="1.5" stroke-linecap="round" stroke-linejoin="round"/>
</svg>
