<svg width="30" height="30" viewBox="0 0 30 30" fill="none" xmlns="http://www.w3.org/2000/svg">
<g clip-path="url(#clip0_655_986)">
<path d="M21.6431 8.35718C23.9574 9.34617 26.5603 9.42272 28.9288 8.57146" stroke="white" stroke-width="1.5" stroke-linecap="round" stroke-linejoin="round"/>
<path d="M8.57165 28.9286C9.42213 26.5526 9.34562 23.9434 8.35736 21.6214C7.58383 19.7726 7.37454 17.7362 7.75585 15.7686C8.13715 13.8011 9.09201 11.9903 10.5002 10.5643C11.9438 9.13563 13.778 8.16633 15.7716 7.77856" stroke="white" stroke-width="1.5" stroke-linecap="round" stroke-linejoin="round"/>
<path d="M14.1431 22.2215C16.1464 21.8305 17.9885 20.8535 19.4359 19.4144C20.8466 17.9899 21.8031 16.179 22.1845 14.2109C22.566 12.2427 22.3552 10.2056 21.5788 8.35725C20.6107 6.03473 20.5571 3.43193 21.4288 1.07153" stroke="white" stroke-width="1.5" stroke-linecap="round" stroke-linejoin="round"/>
<path d="M1.07153 21.4288C3.441 20.5735 6.04802 20.6578 8.35725 21.6645" stroke="white" stroke-width="1.5" stroke-linecap="round" stroke-linejoin="round"/>
<path d="M10.5859 10.5645L19.4359 19.4145" stroke="white" stroke-width="1.5" stroke-linecap="round" stroke-linejoin="round"/>
</g>
<defs>
<clipPath id="clip0_655_986">
<rect width="30" height="30" fill="white"/>
</clipPath>
</defs>
</svg>
