<svg width="24" height="24" viewBox="0 0 24 24" fill="none" xmlns="http://www.w3.org/2000/svg">
<path d="M15.4286 0.857422V11.1431L21.5829 18.9774C21.8826 19.3568 22.0694 19.813 22.1217 20.2937C22.1739 20.7743 22.0896 21.26 21.8784 21.695C21.6672 22.1299 21.3377 22.4965 20.9276 22.7526C20.5175 23.0088 20.0435 23.1441 19.56 23.1431H4.43999C3.95648 23.1441 3.48249 23.0088 3.0724 22.7526C2.66232 22.4965 2.33276 22.1299 2.12155 21.695C1.91035 21.26 1.82605 20.7743 1.87833 20.2937C1.93061 19.813 2.11736 19.3568 2.41714 18.9774L8.57142 11.1431V0.857422" stroke="white" stroke-width="1.5" stroke-linecap="round" stroke-linejoin="round"/>
<path d="M6 0.857422H18" stroke="white" stroke-width="1.5" stroke-linecap="round" stroke-linejoin="round"/>
</svg>
