<svg width="26" height="26" viewBox="0 0 26 26" fill="none" xmlns="http://www.w3.org/2000/svg">
<path d="M21.3574 9.28585C21.3574 13.9101 13.0002 25.0716 13.0002 25.0716C13.0002 25.0716 4.64307 13.9101 4.64307 9.28585C4.64307 7.0694 5.52355 4.94373 7.09082 3.37646C8.65808 1.80919 10.7838 0.928711 13.0002 0.928711C15.2167 0.928711 17.3423 1.80919 18.9096 3.37646C20.4769 4.94373 21.3574 7.0694 21.3574 9.28585V9.28585Z" stroke="#13E0B9" stroke-width="1.5" stroke-linecap="round" stroke-linejoin="round"/>
<path d="M13.0001 12.0714C14.5386 12.0714 15.7858 10.8242 15.7858 9.28571C15.7858 7.74721 14.5386 6.5 13.0001 6.5C11.4616 6.5 10.2144 7.74721 10.2144 9.28571C10.2144 10.8242 11.4616 12.0714 13.0001 12.0714Z" stroke="#13E0B9" stroke-width="1.5" stroke-linecap="round" stroke-linejoin="round"/>
</svg>
