<svg width="4" height="4" viewBox="0 0 4 4" fill="none" xmlns="http://www.w3.org/2000/svg">
<g clip-path="url(#clip0_669_17)">
<mask id="mask0_669_17" style="mask-type:luminance" maskUnits="userSpaceOnUse" x="0" y="0" width="4" height="4">
<path d="M4 0H0V4H4V0Z" fill="white"/>
</mask>
<g mask="url(#mask0_669_17)">
<path d="M3.94102 -16C3.97956 -12.115 3.99374 -9.05888 3.99864 -5.99882L-5.9996 4.0002H-2.10196C-6.63378 4.00376 -10.4611 4.00618 -16 3.93926V-16H3.94102ZM-0.000585699 4.0002H-2.10196C-1.3909 3.99964 -0.662498 3.99918 0.0925784 3.99882C0.061607 3.99954 0.0305556 4.0002 -0.000585699 4.0002ZM0.102735 3.99864C2.26412 3.94382 3.99942 2.17478 3.99942 0.000194359V-5.1705C4.00244 -2.3863 3.99918 0.462973 4 4C2.60556 3.99824 1.31948 3.99806 0.102735 3.99864ZM3.99942 -5.1705C3.99912 -5.44706 3.99908 -5.72296 3.99864 -5.99882L3.99942 -5.99942V-5.1705Z" fill="#D9D9D9"/>
</g>
</g>
<defs>
<clipPath id="clip0_669_17">
<rect width="4" height="4" fill="white"/>
</clipPath>
</defs>
</svg>
