<svg width="152" height="152" viewBox="0 0 152 152" fill="none" xmlns="http://www.w3.org/2000/svg">
<path d="M152 76C152 117.974 117.974 152 76 152C34.0264 152 0 117.974 0 76C0 34.0264 34.0264 0 76 0C117.974 0 152 34.0264 152 76ZM31.567 76C31.567 100.54 51.4603 120.433 76 120.433C100.54 120.433 120.433 100.54 120.433 76C120.433 51.4603 100.54 31.567 76 31.567C51.4603 31.567 31.567 51.4603 31.567 76Z" fill="url(#paint0_linear_403_2382)"/>
<path d="M83.1745 20.5174C82.4001 20.422 81.6833 20.1908 81.0241 19.8237C80.3749 19.4579 79.8148 18.9907 79.3438 18.4222C78.8828 17.8549 78.5435 17.2108 78.3261 16.4898C78.1199 15.7599 78.067 14.9877 78.1674 14.1731C78.2677 13.3585 78.5058 12.6272 78.8817 11.9793C79.2689 11.3226 79.755 10.775 80.3399 10.3366C80.9248 9.89815 81.5765 9.58027 82.2951 9.38293C83.0237 9.18683 83.7802 9.1371 84.5646 9.23374C85.4295 9.34029 86.1904 9.58716 86.8471 9.97436C87.5039 10.3615 88.0458 10.852 88.4729 11.4457L86.9009 12.6456C86.7005 12.3657 86.4745 12.1286 86.2228 11.9342C85.9723 11.7298 85.6918 11.5625 85.3811 11.4324C85.0704 11.3022 84.7139 11.2123 84.3117 11.1628C83.8189 11.1021 83.3401 11.135 82.8753 11.2615C82.4218 11.3792 82.0036 11.5829 81.6208 11.8726C81.2493 12.1536 80.9401 12.5085 80.6933 12.9376C80.4464 13.3666 80.2883 13.8627 80.219 14.4258C80.1496 14.989 80.1825 15.5087 80.3179 15.9847C80.4532 16.4608 80.6664 16.8853 80.9573 17.258C81.2596 17.622 81.6209 17.9217 82.0411 18.1572C82.4625 18.3827 82.9246 18.5264 83.4275 18.5884C83.9303 18.6503 84.3865 18.6351 84.7961 18.5426C85.2057 18.4501 85.5611 18.2999 85.8623 18.092C86.1737 17.8853 86.4277 17.6461 86.6246 17.3743C86.8327 17.0936 86.9811 16.8005 87.0698 16.495L83.6756 16.0768L83.8894 14.342L89.1843 14.9943C89.2021 15.0986 89.2086 15.2526 89.204 15.4562C89.1993 15.6598 89.1889 15.827 89.1728 15.9577C89.0749 16.7522 88.8506 17.4545 88.4997 18.0647C88.159 18.6761 87.7187 19.1834 87.179 19.5865C86.6506 19.9809 86.0447 20.2584 85.3612 20.4193C84.6778 20.5801 83.9489 20.6128 83.1745 20.5174Z" fill="white"/>
<path d="M94.6782 23.1518C93.9401 22.8988 93.3363 22.5043 92.8666 21.9683C92.4065 21.4356 92.109 20.8195 91.974 20.1197C91.8486 19.4233 91.914 18.7013 92.1704 17.9537C92.4103 17.254 92.7951 16.6628 93.3247 16.1803C93.8544 15.6978 94.4627 15.3761 95.1499 15.2154C95.8403 15.045 96.5497 15.0848 97.2782 15.3345C98.0642 15.604 98.668 15.9985 99.0898 16.518C99.5115 17.0375 99.7644 17.6277 99.8485 18.2885C99.9358 18.9398 99.8628 19.6057 99.6295 20.2862C99.5769 20.4396 99.5261 20.5721 99.4771 20.6838C99.4314 20.786 99.3955 20.8594 99.3695 20.904L93.072 18.7449L93.5305 17.4077L98.0595 18.9606C98.1057 18.7943 98.1153 18.6102 98.0882 18.4081C98.0611 18.2059 97.9955 18.0067 97.8915 17.8104C97.7874 17.614 97.6399 17.4349 97.449 17.273C97.271 17.1049 97.043 16.9732 96.7651 16.8779C96.4008 16.753 96.0325 16.7338 95.6601 16.8203C95.2972 16.9102 94.9703 17.098 94.6795 17.3839C94.3919 17.6602 94.1676 18.0332 94.0066 18.5029C93.839 18.9917 93.7871 19.4399 93.8509 19.8474C93.918 20.2453 94.0737 20.5879 94.318 20.8752C94.5751 21.1562 94.8954 21.3624 95.2788 21.4939C95.7293 21.6483 96.1408 21.6823 96.5132 21.5958C96.889 21.4996 97.214 21.3326 97.4884 21.0946L98.7561 22.3648C98.204 22.8503 97.5892 23.1751 96.9117 23.3391C96.2374 23.4936 95.4929 23.4311 94.6782 23.1518Z" fill="white"/>
<path d="M102.353 19.3849L103.129 17.8698L104.401 18.5212L103.624 20.0363L102.353 19.3849ZM103.029 26.6649C102.317 26.3 101.862 25.8106 101.664 25.1969C101.47 24.5741 101.559 23.902 101.928 23.1806L105.331 16.5386L107.103 17.4465L103.867 23.7638C103.696 24.0974 103.636 24.3801 103.688 24.6117C103.745 24.8343 103.927 25.0242 104.233 25.1813C104.378 25.2552 104.522 25.3064 104.667 25.335C104.816 25.3546 105.016 25.3543 105.265 25.3341L104.378 27.0656C104.143 27.0361 103.912 26.9863 103.686 26.9161C103.465 26.8595 103.246 26.7758 103.029 26.6649ZM105.261 20.8748L106.037 19.3598L107.796 20.2607L107.02 21.7757L105.261 20.8748Z" fill="white"/>
<path d="M109.781 30.7987L116.389 22.1523L118.019 23.3984L111.411 32.0447L109.781 30.7987Z" fill="white"/>
<path d="M113.351 33.5128L118.797 27.9973L120.128 29.3109L119.444 30.003L119.531 30.0884C119.96 29.9854 120.401 30.0077 120.853 30.1554C121.312 30.2958 121.719 30.5404 122.072 30.8893C122.75 31.5586 123.055 32.266 122.988 33.0116C122.921 33.7572 122.55 34.4724 121.873 35.1574L118.488 38.5856L117.071 37.1866L120.286 33.9314C120.642 33.5709 120.818 33.2043 120.816 32.8318C120.828 32.4591 120.675 32.1161 120.358 31.8029C120.099 31.5466 119.8 31.3944 119.463 31.3463C119.141 31.2982 118.808 31.3397 118.465 31.4708C118.136 31.6019 117.829 31.8116 117.544 32.1L114.767 34.9118L113.351 33.5128Z" fill="white"/>
<path d="M124.008 46.0776L132.378 40.8858L133.459 42.6295L125.09 47.8212L124.008 46.0776ZM130 38.7833L131.654 37.7578L135.94 44.6679L134.287 45.6934L130 38.7833Z" fill="white"/>
<path d="M128.137 54.5367C127.827 53.7875 127.717 53.0549 127.805 52.3388C127.906 51.6283 128.174 50.9911 128.61 50.4273C129.059 49.869 129.644 49.4409 130.365 49.143C131.086 48.8451 131.798 48.7374 132.501 48.8198C133.217 48.9077 133.857 49.1696 134.421 49.6054C134.998 50.0468 135.441 50.6421 135.751 51.3913C136.06 52.1405 136.164 52.8703 136.063 53.5809C135.962 54.2914 135.692 54.9239 135.252 55.4784C134.816 56.0421 134.238 56.473 133.517 56.7709C132.795 57.0688 132.077 57.1738 131.361 57.0859C130.658 57.0035 130.02 56.7463 129.447 56.3143C128.883 55.8785 128.446 55.2859 128.137 54.5367ZM129.851 53.8287C129.998 54.1846 130.211 54.4748 130.49 54.6993C130.782 54.9294 131.12 55.0695 131.502 55.1198C131.898 55.1755 132.316 55.1125 132.756 54.9307C133.197 54.7488 133.532 54.5004 133.764 54.1854C134 53.8798 134.14 53.5423 134.185 53.173C134.233 52.8131 134.186 52.4598 134.043 52.1133C133.896 51.7575 133.674 51.4598 133.378 51.2204C133.085 50.9904 132.746 50.8455 132.36 50.7859C131.977 50.7356 131.566 50.8014 131.126 50.9833C130.685 51.1651 130.343 51.4108 130.098 51.7203C129.866 52.0352 129.728 52.3774 129.683 52.7467C129.652 53.1215 129.708 53.4822 129.851 53.8287Z" fill="white"/>
<path d="M130.986 63.3277C130.784 62.3969 130.919 61.6365 131.393 61.0464C131.866 60.4564 132.598 60.0539 133.588 59.8391L138.193 58.8398L138.615 60.7856L134.248 61.7333C133.733 61.845 133.354 62.0569 133.111 62.3689C132.879 62.6887 132.807 63.0466 132.892 63.4427C132.976 63.8289 133.141 64.1353 133.387 64.3618C133.644 64.5862 133.95 64.7323 134.307 64.8C134.666 64.8776 135.043 64.8734 135.44 64.7875L139.301 63.9494L139.724 65.8952L132.148 67.5391L131.752 65.7121L132.703 65.5058L132.677 65.387C132.407 65.29 132.157 65.1421 131.927 64.9431C131.697 64.7441 131.501 64.5068 131.337 64.2313C131.176 63.9656 131.059 63.6644 130.986 63.3277Z" fill="white"/>
<path d="M132.393 73.6567C132.357 72.8671 132.497 72.1558 132.813 71.5228C133.14 70.8994 133.604 70.3966 134.206 70.0144C134.818 69.6418 135.523 69.4374 136.323 69.4012C137.123 69.365 137.839 69.505 138.472 69.8212C139.106 70.1475 139.613 70.6063 139.995 71.1976C140.377 71.799 140.586 72.4945 140.622 73.2841C140.661 74.1445 140.512 74.8916 140.176 75.5256C139.839 76.1596 139.333 76.6288 138.657 76.9333L137.816 75.1456C138.163 74.9676 138.41 74.7282 138.559 74.4273C138.718 74.1259 138.788 73.7728 138.77 73.3679C138.752 72.9732 138.64 72.6232 138.433 72.3181C138.237 72.0126 137.967 71.7763 137.625 71.6092C137.283 71.4421 136.879 71.3691 136.413 71.3902C135.948 71.4113 135.547 71.5207 135.211 71.7185C134.885 71.9159 134.633 72.1758 134.455 72.4983C134.287 72.8203 134.212 73.1787 134.23 73.5735C134.25 74.0189 134.363 74.384 134.568 74.6688C134.784 74.9532 135.068 75.1787 135.421 75.3454L134.712 77.1576C134.05 76.8832 133.508 76.4463 133.085 75.8467C132.662 75.2471 132.432 74.5171 132.393 73.6567Z" fill="white"/>
<path d="M132.711 79.463L143.51 80.8086L143.264 82.7844L140.534 82.4442L139.207 82.1563L139.192 82.277C139.516 82.542 139.763 82.8945 139.933 83.3343C140.112 83.7854 140.17 84.2624 140.107 84.7651C140.028 85.3986 139.831 85.9152 139.516 86.315C139.21 86.7161 138.808 86.9927 138.309 87.145C137.809 87.3073 137.237 87.3484 136.594 87.2682L131.813 86.6724L132.059 84.6966L136.599 85.2623C136.941 85.3049 137.23 85.2746 137.468 85.1715C137.714 85.0796 137.911 84.9306 138.06 84.7245C138.207 84.5283 138.298 84.2845 138.335 83.9929C138.378 83.641 138.317 83.3167 138.149 83.0202C137.992 82.7249 137.757 82.4812 137.444 82.289C137.131 82.0968 136.773 81.9757 136.371 81.9256L132.465 81.4388L132.711 79.463Z" fill="white"/>
<path d="M134.532 96.4512L135.72 95.6621L136.731 97.2089L136.875 97.2141L137.986 95.8932L139.088 96.8083L138.002 98.1061L137.997 98.2502L139.62 98.8572L139.12 100.195L137.497 99.5884L137.411 99.6864L137.374 101.392L135.942 101.36L135.97 99.6343L135.858 99.5436L134.08 100.047L133.701 98.6721L135.519 98.151L135.562 98.0371L134.532 96.4512Z" fill="white"/>
<path d="M121.909 108.815C122.367 108.184 122.916 107.668 123.557 107.269C124.191 106.878 124.871 106.614 125.596 106.477C126.316 106.348 127.044 106.363 127.78 106.522C128.519 106.695 129.22 107.022 129.884 107.505C130.548 107.987 131.073 108.549 131.458 109.192C131.845 109.848 132.089 110.539 132.19 111.263C132.29 111.987 132.253 112.711 132.078 113.435C131.897 114.168 131.574 114.854 131.11 115.493C130.598 116.199 130.013 116.745 129.357 117.132C128.7 117.519 128.009 117.756 127.282 117.843L126.993 115.886C127.335 115.846 127.652 115.763 127.944 115.637C128.244 115.517 128.526 115.352 128.791 115.144C129.055 114.935 129.306 114.666 129.544 114.338C129.836 113.936 130.039 113.502 130.153 113.034C130.27 112.58 130.294 112.115 130.225 111.64C130.159 111.179 129.998 110.737 129.743 110.313C129.487 109.889 129.129 109.511 128.67 109.177C128.211 108.844 127.74 108.621 127.258 108.509C126.776 108.397 126.301 108.378 125.834 108.453C125.369 108.541 124.932 108.712 124.523 108.966C124.121 109.225 123.772 109.56 123.474 109.97C123.177 110.38 122.969 110.787 122.852 111.19C122.735 111.593 122.694 111.977 122.73 112.341C122.76 112.713 122.847 113.052 122.989 113.355C123.134 113.673 123.319 113.945 123.543 114.171L125.552 111.403L126.967 112.43L123.833 116.747C123.733 116.712 123.595 116.644 123.419 116.541C123.243 116.438 123.102 116.348 122.995 116.271C122.347 115.801 121.841 115.264 121.477 114.662C121.107 114.068 120.876 113.437 120.785 112.77C120.696 112.116 120.746 111.452 120.936 110.776C121.126 110.1 121.45 109.447 121.909 108.815Z" fill="white"/>
<path d="M114.035 117.617C114.612 117.093 115.249 116.754 115.945 116.601C116.634 116.455 117.317 116.492 117.995 116.711C118.665 116.937 119.266 117.342 119.798 117.928C120.295 118.475 120.627 119.097 120.794 119.794C120.962 120.491 120.95 121.179 120.759 121.858C120.576 122.545 120.199 123.148 119.629 123.665C119.013 124.224 118.377 124.562 117.718 124.681C117.06 124.8 116.421 124.737 115.801 124.492C115.189 124.254 114.64 123.869 114.157 123.337C114.048 123.217 113.956 123.108 113.882 123.011C113.815 122.922 113.768 122.855 113.741 122.811L118.67 118.336L119.62 119.382L116.075 122.601C116.199 122.721 116.355 122.819 116.545 122.892C116.736 122.966 116.942 123.005 117.164 123.008C117.386 123.012 117.614 122.969 117.848 122.88C118.081 122.805 118.307 122.669 118.524 122.471C118.809 122.213 119.004 121.899 119.107 121.531C119.204 121.17 119.197 120.793 119.087 120.4C118.983 120.015 118.765 119.639 118.431 119.271C118.084 118.889 117.716 118.627 117.328 118.486C116.947 118.353 116.572 118.324 116.203 118.4C115.832 118.49 115.497 118.671 115.197 118.943C114.845 119.263 114.616 119.607 114.513 119.975C114.416 120.351 114.405 120.716 114.481 121.071L112.757 121.569C112.598 120.851 112.61 120.156 112.793 119.484C112.983 118.818 113.397 118.196 114.035 117.617Z" fill="white"/>
<path d="M113.632 126.165L114.587 127.575L113.404 128.376L112.449 126.966L113.632 126.165ZM106.925 123.254C107.588 122.806 108.236 122.642 108.869 122.764C109.508 122.894 110.055 123.295 110.509 123.966L114.694 130.145L113.045 131.262L109.065 125.385C108.855 125.074 108.636 124.886 108.408 124.82C108.185 124.763 107.931 124.831 107.646 125.024C107.512 125.115 107.397 125.217 107.303 125.33C107.214 125.452 107.118 125.626 107.016 125.855L105.925 124.244C106.064 124.052 106.218 123.874 106.389 123.709C106.545 123.542 106.724 123.391 106.925 123.254ZM110.926 127.997L111.881 129.407L110.245 130.515L109.29 129.105L110.926 127.997Z" fill="white"/>
<path d="M100.045 127.18L104.438 137.137L102.561 137.965L98.1673 128.009L100.045 127.18Z" fill="white"/>
<path d="M95.9625 128.998L98.1629 136.431L96.3703 136.962L96.0942 136.029L95.9776 136.063C95.8605 136.489 95.6282 136.864 95.2805 137.189C94.9357 137.524 94.5253 137.761 94.0492 137.902C93.1359 138.173 92.3689 138.099 91.7483 137.68C91.1277 137.261 90.6808 136.59 90.4075 135.667L89.0398 131.048L90.949 130.482L92.2477 134.869C92.3915 135.355 92.6271 135.687 92.9545 135.865C93.2751 136.055 93.6491 136.087 94.0766 135.96C94.4264 135.857 94.7037 135.669 94.9085 135.397C95.1065 135.138 95.2309 134.826 95.2817 134.462C95.3257 134.111 95.2901 133.741 95.1751 133.353L94.0533 129.563L95.9625 128.998Z" fill="white"/>
<path d="M79.8082 132.252L80.3001 142.088L78.2508 142.191L77.7589 132.354L79.8082 132.252ZM83.2906 141.026L83.3878 142.969L75.2664 143.375L75.1692 141.432L83.2906 141.026Z" fill="white"/>
<path d="M70.3232 131.776C71.1287 131.867 71.8237 132.124 72.4081 132.547C72.9813 132.979 73.4095 133.521 73.6925 134.176C73.9642 134.838 74.0563 135.558 73.9687 136.333C73.8811 137.108 73.6314 137.784 73.2197 138.359C72.7968 138.943 72.2583 139.377 71.6043 139.66C70.939 139.952 70.2037 140.053 69.3982 139.962C68.5927 139.871 67.9033 139.609 67.3301 139.177C66.7568 138.745 66.3337 138.203 66.0608 137.55C65.7778 136.896 65.6801 136.181 65.7677 135.406C65.8553 134.631 66.1106 133.951 66.5336 133.367C66.9453 132.791 67.4787 132.357 68.1339 132.064C68.7879 131.781 69.5177 131.685 70.3232 131.776ZM70.115 133.618C69.7324 133.575 69.3753 133.621 69.0438 133.757C68.7012 133.902 68.4154 134.13 68.1865 134.44C67.9465 134.76 67.7997 135.156 67.7462 135.63C67.6928 136.103 67.7479 136.517 67.9118 136.872C68.0655 137.226 68.2933 137.512 68.595 137.729C68.8866 137.946 69.2187 138.075 69.5913 138.117C69.9739 138.161 70.3416 138.11 70.6943 137.967C71.037 137.822 71.3278 137.595 71.5667 137.285C71.7956 136.974 71.9367 136.583 71.9902 136.109C72.0437 135.636 71.9941 135.217 71.8415 134.854C71.6777 134.498 71.4449 134.212 71.1432 133.995C70.8302 133.786 70.4875 133.66 70.115 133.618Z" fill="white"/>
<path d="M61.2678 130.03C62.1806 130.302 62.7812 130.788 63.0697 131.487C63.3581 132.186 63.3576 133.021 63.0681 133.992L61.7218 138.508L59.8137 137.939L61.0905 133.657C61.241 133.152 61.2384 132.717 61.0825 132.354C60.9139 131.997 60.6355 131.76 60.2471 131.645C59.8684 131.532 59.5204 131.528 59.2032 131.635C58.8831 131.751 58.6073 131.949 58.3759 132.229C58.1347 132.506 57.9562 132.838 57.8404 133.227L56.7112 137.014L54.8031 136.445L57.018 129.017L58.8095 129.551L58.5316 130.483L58.6481 130.518C58.8633 130.328 59.1134 130.181 59.3986 130.075C59.6837 129.97 59.9865 129.912 60.3067 129.902C60.6173 129.889 60.9376 129.931 61.2678 130.03Z" fill="white"/>
<path d="M51.5264 126.263C52.2347 126.614 52.7894 127.081 53.1904 127.664C53.5778 128.251 53.7933 128.901 53.8369 129.612C53.8668 130.328 53.7042 131.045 53.349 131.762C52.9937 132.479 52.5246 133.038 51.9416 133.439C51.3495 133.836 50.7023 134.058 50.0001 134.106C49.2888 134.15 48.579 133.996 47.8707 133.646C47.0989 133.263 46.517 132.772 46.1249 132.17C45.7329 131.569 45.5672 130.899 45.6278 130.16L47.5995 130.289C47.5874 130.678 47.677 131.011 47.8684 131.287C48.0553 131.572 48.3304 131.804 48.6936 131.984C49.0478 132.159 49.4083 132.23 49.7752 132.197C50.1377 132.173 50.4748 132.052 50.7866 131.833C51.0985 131.614 51.3578 131.296 51.5646 130.878C51.7715 130.461 51.8696 130.057 51.859 129.667C51.844 129.287 51.7384 128.94 51.5424 128.629C51.3418 128.326 51.0644 128.087 50.7103 127.911C50.3108 127.713 49.9366 127.636 49.5878 127.678C49.2346 127.729 48.8998 127.868 48.5834 128.096L47.3405 126.599C47.9007 126.152 48.5455 125.889 49.2747 125.81C50.004 125.73 50.7546 125.881 51.5264 126.263Z" fill="white"/>
<path d="M46.3752 123.78L39.9703 132.578L38.3606 131.406L39.9797 129.182L40.8741 128.16L40.7758 128.089C40.3869 128.244 39.9589 128.29 39.4918 128.225C39.0105 128.163 38.5651 127.983 38.1555 127.685C37.6394 127.309 37.2828 126.887 37.0856 126.417C36.8824 125.956 36.8349 125.47 36.9432 124.96C37.0432 124.444 37.2841 123.924 37.6658 123.399L40.5014 119.504L42.1112 120.676L39.4186 124.375C39.2159 124.653 39.1021 124.921 39.0774 125.179C39.0386 125.439 39.0735 125.684 39.1822 125.913C39.2826 126.137 39.4517 126.335 39.6892 126.508C39.9759 126.717 40.2895 126.82 40.63 126.817C40.9645 126.822 41.2916 126.734 41.6113 126.553C41.9309 126.373 42.21 126.118 42.4486 125.791L44.7654 122.608L46.3752 123.78Z" fill="white"/>
<path d="M30.6196 117.159L30.7384 118.58L28.8955 118.721L28.8214 118.845L29.4433 120.455L28.1103 120.979L27.4967 119.402L27.3729 119.328L26.0587 120.457L25.1276 119.374L26.4418 118.245L26.3971 118.123L24.9205 117.267L25.6394 116.028L27.1374 116.885L27.2709 116.831L27.6874 115.03L29.0742 115.361L28.6545 117.205L28.7338 117.297L30.6196 117.159Z" fill="white"/>
<path d="M25.8602 100.138C26.193 100.844 26.3802 101.573 26.4217 102.327C26.459 103.071 26.363 103.794 26.1338 104.496C25.9003 105.189 25.5367 105.819 25.0432 106.388C24.5361 106.952 23.9114 107.409 23.169 107.759C22.4267 108.109 21.6812 108.298 20.9327 108.326C20.1706 108.35 19.4481 108.231 18.7651 107.97C18.0822 107.71 17.4654 107.329 16.9149 106.826C16.3601 106.315 15.9142 105.702 15.5771 104.987C15.2054 104.199 15.0079 103.424 14.9847 102.662C14.9614 101.9 15.0868 101.18 15.3608 100.501L17.2147 101.19C17.085 101.509 17.0051 101.827 16.9752 102.143C16.9361 102.464 16.9444 102.791 17.0002 103.123C17.056 103.455 17.1704 103.804 17.3432 104.171C17.555 104.62 17.8384 105.007 18.1936 105.333C18.5352 105.653 18.9307 105.898 19.3801 106.067C19.816 106.231 20.2812 106.303 20.7757 106.283C21.2703 106.263 21.7742 106.131 22.2874 105.889C22.8007 105.647 23.2224 105.342 23.5527 104.974C23.8831 104.605 24.1281 104.198 24.288 103.753C24.4343 103.303 24.4949 102.838 24.4697 102.357C24.4353 101.88 24.3101 101.412 24.094 100.954C23.878 100.496 23.6215 100.118 23.3246 99.8214C23.0278 99.5245 22.711 99.3041 22.3744 99.1604C22.0334 99.0075 21.6955 98.9204 21.3605 98.8991C21.0121 98.8729 20.685 98.9039 20.3793 98.9921L21.8379 102.085L20.2569 102.831L17.9815 98.0054C18.0602 97.9347 18.1869 97.8469 18.3616 97.7422C18.5362 97.6374 18.6831 97.5569 18.8023 97.5008C19.5263 97.1593 20.2399 96.9741 20.9432 96.9449C21.6421 96.9066 22.3061 97.008 22.9351 97.2492C23.5507 97.4854 24.1089 97.8496 24.6097 98.3416C25.1106 98.8336 25.5274 99.4324 25.8602 100.138Z" fill="white"/>
<path d="M21.9451 88.9904C22.1247 89.7497 22.1131 90.4709 21.9103 91.154C21.7051 91.8273 21.3426 92.4076 20.8227 92.895C20.3005 93.3726 19.6549 93.7023 18.8857 93.8843C18.1659 94.0545 17.4606 94.0444 16.77 93.8537C16.0793 93.6631 15.4827 93.32 14.9803 92.8245C14.4679 92.3314 14.1231 91.7101 13.9459 90.9607C13.7546 90.1521 13.7662 89.4309 13.9807 88.7971C14.1952 88.1632 14.5595 87.6345 15.0737 87.211C15.578 86.7897 16.1802 86.4963 16.8803 86.3307C17.038 86.2934 17.1773 86.2656 17.2979 86.2475C17.4087 86.2317 17.4899 86.2229 17.5416 86.2211L19.074 92.6996L17.6985 93.025L16.5964 88.3658C16.4311 88.4153 16.2702 88.5054 16.1137 88.6362C15.9572 88.7669 15.8236 88.9286 15.713 89.1214C15.6024 89.3141 15.5296 89.5344 15.4945 89.7822C15.4472 90.0225 15.4574 90.2856 15.525 90.5715C15.6136 90.9462 15.7939 91.268 16.0658 91.5369C16.3353 91.796 16.6685 91.9722 17.0655 92.0658C17.4526 92.1616 17.8877 92.1524 18.3709 92.0381C18.8738 91.9191 19.2806 91.724 19.5913 91.4527C19.8921 91.1837 20.0988 90.8693 20.2116 90.5094C20.3121 90.142 20.3157 89.7611 20.2224 89.3667C20.1128 88.9032 19.922 88.5371 19.6502 88.2682C19.3684 88.0016 19.0537 87.8157 18.7061 87.7106L19.1043 85.9608C19.8095 86.1688 20.4122 86.5156 20.9123 87.0012C21.4026 87.4892 21.7469 88.1522 21.9451 88.9904Z" fill="white"/>
<path d="M14.6686 84.5365L12.9731 84.6897L12.8446 83.2668L14.54 83.1136L14.6686 84.5365ZM20.4615 80.0757C20.5335 80.8729 20.363 81.5191 19.9499 82.0143C19.5267 82.5104 18.9115 82.7949 18.1041 82.8678L10.6716 83.5395L10.4924 81.5565L17.5616 80.9176C17.935 80.8839 18.2057 80.7831 18.3737 80.6153C18.5316 80.4485 18.595 80.1935 18.564 79.8504C18.5494 79.6889 18.5156 79.5393 18.4624 79.4017C18.3992 79.265 18.2924 79.0966 18.1421 78.8965L20.0797 78.7214C20.1805 78.9361 20.2615 79.1577 20.3229 79.3862C20.3934 79.6036 20.4396 79.8335 20.4615 80.0757ZM14.3745 81.282L12.679 81.4352L12.5012 79.4673L14.1966 79.3141L14.3745 81.282Z" fill="white"/>
<path d="M20.3499 72.0412L9.51025 71.0742L9.69257 69.0304L20.5322 69.9974L20.3499 72.0412Z" fill="white"/>
<path d="M20.7302 67.6131L13.1581 65.9544L13.5581 64.1282L14.5084 64.3363L14.5344 64.2176C14.218 63.9097 14.0014 63.5251 13.8846 63.0639C13.758 62.6004 13.7477 62.1262 13.854 61.6412C14.0578 60.7108 14.4928 60.0748 15.1589 59.7332C15.825 59.3915 16.6282 59.3237 17.5685 59.5297L22.2751 60.5607L21.849 62.5057L17.38 61.5267C16.8851 61.4183 16.4808 61.4646 16.167 61.6656C15.8456 61.8545 15.6371 62.1667 15.5417 62.6022C15.4637 62.9585 15.4944 63.292 15.6338 63.6026C15.7655 63.9012 15.9784 64.1605 16.2725 64.3805C16.5589 64.5884 16.9 64.7358 17.296 64.8225L21.1562 65.6681L20.7302 67.6131Z" fill="white"/>
<path d="M25.6859 51.8804L16.839 47.5518L17.7407 45.7087L26.5877 50.0373L25.6859 51.8804ZM16.3221 50.6832L14.5746 49.8281L18.1483 42.524L19.8959 43.379L16.3221 50.6832Z" fill="white"/>
<path d="M30.644 43.8975C30.1744 44.5583 29.6132 45.0421 28.9602 45.3488C28.3048 45.6414 27.6225 45.7532 26.9132 45.6843C26.2015 45.6013 25.5277 45.3338 24.8917 44.8819C24.2556 44.4299 23.7855 43.8846 23.4811 43.2457C23.1744 42.5927 23.0555 41.9116 23.1244 41.2023C23.191 40.4789 23.459 39.7868 23.9285 39.126C24.398 38.4652 24.9605 37.9885 25.6159 37.6959C26.2712 37.4034 26.9506 37.2957 27.6541 37.3728C28.3633 37.4418 29.036 37.7022 29.672 38.1541C30.308 38.606 30.7794 39.1584 31.0861 39.8114C31.3904 40.4503 31.5123 41.1273 31.4516 41.8424C31.3827 42.5517 31.1135 43.2367 30.644 43.8975ZM29.1324 42.8235C29.3554 42.5096 29.4877 42.1748 29.5292 41.8189C29.5683 41.449 29.5073 41.0887 29.3463 40.7381C29.1828 40.3733 28.907 40.053 28.5187 39.7772C28.1305 39.5013 27.7414 39.3492 27.3515 39.3207C26.9674 39.284 26.6071 39.3449 26.2706 39.5036C25.94 39.654 25.6661 39.882 25.4489 40.1877C25.2259 40.5015 25.0919 40.8476 25.0469 41.2258C25.0077 41.5958 25.0658 41.9602 25.221 42.3191C25.3821 42.6697 25.6567 42.9829 26.0449 43.2588C26.4331 43.5346 26.8234 43.6938 27.2158 43.7364C27.6058 43.7649 27.969 43.6998 28.3055 43.5411C28.6396 43.3683 28.9152 43.1291 29.1324 42.8235Z" fill="white"/>
<path d="M36.5599 36.8087C35.8809 37.4767 35.1656 37.7682 34.4139 37.6832C33.6623 37.5982 32.9312 37.1945 32.2206 36.4722L28.9163 33.1133L30.3357 31.717L33.4694 34.9025C33.8389 35.2781 34.2206 35.4855 34.6144 35.5245C35.0082 35.5492 35.3497 35.4195 35.6386 35.1352C35.9203 34.8581 36.0912 34.555 36.1512 34.2259C36.2041 33.8896 36.1639 33.5525 36.0305 33.2146C35.9044 32.8696 35.6992 32.5527 35.4149 32.2638L32.6436 29.4466L34.063 28.0503L39.4991 33.5762L38.1664 34.8873L37.4842 34.1938L37.3975 34.2791C37.4597 34.5591 37.4681 34.8493 37.4226 35.1499C37.3772 35.4504 37.2816 35.7434 37.136 36.0288C36.9976 36.3072 36.8055 36.5671 36.5599 36.8087Z" fill="white"/>
<path d="M44.562 30.0803C43.9137 30.5323 43.2375 30.7938 42.5334 30.8647C41.8319 30.9215 41.1589 30.7978 40.5144 30.4936C39.8725 30.1753 39.3226 29.6878 38.8648 29.0312C38.407 28.3745 38.1426 27.6942 38.0717 26.9901C38.0091 26.2802 38.1258 25.606 38.4217 24.9673C38.7259 24.3229 39.2021 23.7747 39.8505 23.3227C40.557 22.8301 41.2681 22.5566 41.9837 22.5023C42.6994 22.4481 43.3665 22.6253 43.985 23.034L42.9235 24.7006C42.5876 24.5024 42.2528 24.4208 41.9191 24.4559C41.5795 24.4827 41.2435 24.6119 40.911 24.8437C40.5868 25.0698 40.351 25.3516 40.2034 25.6891C40.05 26.0184 39.9942 26.3723 40.0358 26.751C40.0774 27.1296 40.2315 27.51 40.4981 27.8924C40.7647 28.2747 41.0713 28.5551 41.418 28.7334C41.7588 28.9033 42.1132 28.9775 42.4809 28.9557C42.8429 28.9257 43.186 28.7977 43.5102 28.5717C43.8759 28.3167 44.1242 28.0262 44.2552 27.7002C44.3803 27.3659 44.4192 27.0053 44.3718 26.6184L46.2825 26.2496C46.4041 26.9554 46.3243 27.6472 46.0433 28.3249C45.7623 29.0025 45.2685 29.5877 44.562 30.0803Z" fill="white"/>
<path d="M49.2191 26.7559L44.5914 16.9062L46.3935 16.0596L47.5634 18.5495L48.0286 19.8255L48.1386 19.7738C48.1896 19.3581 48.3557 18.961 48.6369 18.5825C48.923 18.1906 49.2953 17.887 49.7538 17.6715C50.3316 17.4001 50.8737 17.2909 51.3801 17.3441C51.8822 17.3881 52.3308 17.5804 52.7259 17.9209C53.1301 18.2572 53.4702 18.7187 53.7459 19.3057L55.7948 23.6665L53.9927 24.5132L52.0472 20.3725C51.9007 20.0607 51.7205 19.8319 51.5064 19.6861C51.2973 19.5269 51.066 19.4397 50.8125 19.4244C50.5682 19.4048 50.3131 19.4575 50.0471 19.5825C49.7261 19.7333 49.4849 19.9586 49.3235 20.2583C49.1577 20.5489 49.0772 20.8779 49.0818 21.2451C49.0864 21.6124 49.1749 21.9795 49.3473 22.3463L51.0212 25.9092L49.2191 26.7559Z" fill="white"/>
<path d="M62.6553 16.1403L61.3546 15.5561L62.1239 13.8755L62.0515 13.7508L60.3418 13.5152L60.5288 12.095L62.2056 12.3219L62.3303 12.2495L61.9787 10.5528L63.3778 10.263L63.7293 11.9596L63.8576 11.9796L65.3211 11.1021L66.057 12.3311L64.5817 13.2266L64.5648 13.3698L65.9386 14.6063L64.9771 15.6592L63.5673 14.3991L63.4483 14.4238L62.6553 16.1403Z" fill="white"/>
<circle cx="76" cy="76" r="35" fill="white"/>
<rect x="51" y="51" width="50" height="50" rx="25" fill="url(#paint1_linear_403_2382)"/>
<path fill-rule="evenodd" clip-rule="evenodd" d="M77.5064 61V69.636L78.2091 69.8223C80.3316 70.384 82.1736 71.64 83.475 73.3335C84.1953 74.2696 84.7512 75.3418 85.0954 76.5046H87.0432C86.6503 74.9136 85.9316 73.4485 84.9611 72.1858C83.5556 70.3597 81.622 68.9601 79.3887 68.2154V62.8815H80.9747V61H77.5064ZM71.9945 62.8815H70.4077V61H73.876V69.636L73.1741 69.8223C71.0517 70.384 69.2096 71.64 67.9074 73.3335C66.638 74.9849 65.8824 77.0562 65.8824 79.308C65.8824 82.0173 66.9805 84.4697 68.7554 86.2446C70.5303 88.0195 72.9827 89.1176 75.6912 89.1176C78.4005 89.1176 80.8538 88.0195 82.6278 86.2446C84.1953 84.6771 85.2348 82.5823 85.4564 80.2491H75.6912V78.3676H87.3455C87.3698 78.6783 87.3832 78.9914 87.3832 79.3088C87.3832 82.537 86.0735 85.4596 83.9586 87.5753C81.842 89.6911 78.9202 91 75.6912 91C72.463 91 69.5404 89.6911 67.4247 87.5753C65.3081 85.4596 64 82.537 64 79.3088C64 76.6322 64.9034 74.163 66.4222 72.1875C67.8268 70.3614 69.7604 68.9618 71.9945 68.2171V62.8815Z" fill="white"/>
<path fill-rule="evenodd" clip-rule="evenodd" d="M70.2247 79.5361C70.9963 79.5361 71.626 78.9072 71.626 78.1348C71.626 77.3632 70.9972 76.7344 70.2247 76.7344C69.4532 76.7344 68.8235 77.3632 68.8235 78.1348C68.8235 78.9064 69.4532 79.5361 70.2247 79.5361Z" fill="white"/>
<path fill-rule="evenodd" clip-rule="evenodd" d="M74.1069 76.111C74.562 76.111 74.9339 75.7399 74.9339 75.284C74.9339 74.829 74.5628 74.457 74.1069 74.457C73.651 74.457 73.2799 74.829 73.2799 75.284C73.2791 75.7399 73.651 76.111 74.1069 76.111Z" fill="white"/>
<path fill-rule="evenodd" clip-rule="evenodd" d="M71.0743 74.3687C71.3656 74.3687 71.6024 74.1319 71.6024 73.8406C71.6024 73.5493 71.3647 73.3125 71.0743 73.3125C70.7829 73.3125 70.5461 73.5501 70.5461 73.8406C70.5453 74.1311 70.7829 74.3687 71.0743 74.3687Z" fill="white"/>
<defs>
<linearGradient id="paint0_linear_403_2382" x1="152" y1="76" x2="0" y2="76" gradientUnits="userSpaceOnUse">
<stop stop-color="#13E0B9"/>
<stop offset="1" stop-color="#116DAD"/>
</linearGradient>
<linearGradient id="paint1_linear_403_2382" x1="101" y1="76" x2="51" y2="76" gradientUnits="userSpaceOnUse">
<stop stop-color="#13E0B9"/>
<stop offset="1" stop-color="#116DAD"/>
</linearGradient>
</defs>
</svg>
