<svg width="50" height="50" viewBox="0 0 50 50" fill="none" xmlns="http://www.w3.org/2000/svg">
<rect width="50" height="50" rx="25" fill="url(#paint0_linear_324_114)"/>
<path fill-rule="evenodd" clip-rule="evenodd" d="M26.5064 10V18.636L27.2091 18.8223C29.3316 19.384 31.1736 20.64 32.475 22.3335C33.1953 23.2696 33.7512 24.3418 34.0954 25.5046H36.0432C35.6503 23.9136 34.9316 22.4485 33.9611 21.1858C32.5556 19.3597 30.622 17.9601 28.3887 17.2154V11.8815H29.9747V10H26.5064ZM20.9945 11.8815H19.4077V10H22.876V18.636L22.1741 18.8223C20.0517 19.384 18.2096 20.64 16.9074 22.3335C15.638 23.9849 14.8824 26.0562 14.8824 28.308C14.8824 31.0173 15.9805 33.4697 17.7554 35.2446C19.5303 37.0195 21.9827 38.1176 24.6912 38.1176C27.4005 38.1176 29.8538 37.0195 31.6278 35.2446C33.1953 33.6771 34.2348 31.5823 34.4564 29.2491H24.6912V27.3676H36.3455C36.3698 27.6783 36.3832 27.9914 36.3832 28.3088C36.3832 31.537 35.0735 34.4596 32.9586 36.5753C30.842 38.6911 27.9202 40 24.6912 40C21.463 40 18.5404 38.6911 16.4247 36.5753C14.3081 34.4596 13 31.537 13 28.3088C13 25.6322 13.9034 23.163 15.4222 21.1875C16.8268 19.3614 18.7604 17.9618 20.9945 17.2171V11.8815Z" fill="white"/>
<path fill-rule="evenodd" clip-rule="evenodd" d="M19.2248 28.5356C19.9964 28.5356 20.626 27.9067 20.626 27.1343C20.626 26.3627 19.9972 25.7339 19.2248 25.7339C18.4532 25.7339 17.8235 26.3627 17.8235 27.1343C17.8235 27.9059 18.4532 28.5356 19.2248 28.5356Z" fill="white"/>
<path fill-rule="evenodd" clip-rule="evenodd" d="M23.1069 25.1125C23.562 25.1125 23.9339 24.7414 23.9339 24.2855C23.9339 23.8304 23.5628 23.4585 23.1069 23.4585C22.651 23.4585 22.2799 23.8304 22.2799 24.2855C22.2791 24.7414 22.651 25.1125 23.1069 25.1125Z" fill="white"/>
<path fill-rule="evenodd" clip-rule="evenodd" d="M20.0743 23.3672C20.3656 23.3672 20.6024 23.1305 20.6024 22.8391C20.6024 22.5478 20.3647 22.311 20.0743 22.311C19.7829 22.311 19.5461 22.5486 19.5461 22.8391C19.5453 23.1296 19.7829 23.3672 20.0743 23.3672Z" fill="white"/>
<defs>
<linearGradient id="paint0_linear_324_114" x1="50" y1="25" x2="0" y2="25" gradientUnits="userSpaceOnUse">
<stop stop-color="#13E0B9"/>
<stop offset="1" stop-color="#116DAD"/>
</linearGradient>
</defs>
</svg>
