<svg width="163" height="50" viewBox="0 0 163 50" fill="none" xmlns="http://www.w3.org/2000/svg">
<rect width="50" height="50" rx="25" fill="url(#paint0_linear_711_65)"/>
<path fill-rule="evenodd" clip-rule="evenodd" d="M26.5064 10V18.636L27.2091 18.8223C29.3316 19.384 31.1736 20.64 32.475 22.3335C33.1953 23.2696 33.7512 24.3418 34.0954 25.5046H36.0432C35.6503 23.9136 34.9316 22.4485 33.9611 21.1858C32.5556 19.3597 30.622 17.9601 28.3887 17.2154V11.8815H29.9747V10H26.5064ZM20.9945 11.8815H19.4077V10H22.876V18.636L22.1741 18.8223C20.0517 19.384 18.2096 20.64 16.9074 22.3335C15.638 23.9849 14.8824 26.0562 14.8824 28.308C14.8824 31.0173 15.9805 33.4697 17.7554 35.2446C19.5303 37.0195 21.9827 38.1176 24.6912 38.1176C27.4005 38.1176 29.8538 37.0195 31.6278 35.2446C33.1953 33.6771 34.2348 31.5823 34.4564 29.2491H24.6912V27.3676H36.3455C36.3698 27.6783 36.3832 27.9914 36.3832 28.3088C36.3832 31.537 35.0735 34.4596 32.9586 36.5753C30.842 38.6911 27.9202 40 24.6912 40C21.463 40 18.5404 38.6911 16.4247 36.5753C14.3081 34.4596 13 31.537 13 28.3088C13 25.6322 13.9034 23.163 15.4222 21.1875C16.8268 19.3614 18.7604 17.9618 20.9945 17.2171V11.8815Z" fill="white"/>
<path fill-rule="evenodd" clip-rule="evenodd" d="M19.2248 28.5361C19.9964 28.5361 20.626 27.9072 20.626 27.1348C20.626 26.3632 19.9972 25.7344 19.2248 25.7344C18.4532 25.7344 17.8235 26.3632 17.8235 27.1348C17.8235 27.9064 18.4532 28.5361 19.2248 28.5361Z" fill="white"/>
<path fill-rule="evenodd" clip-rule="evenodd" d="M23.1069 25.113C23.562 25.113 23.9339 24.7419 23.9339 24.286C23.9339 23.8309 23.5628 23.459 23.1069 23.459C22.651 23.459 22.2799 23.8309 22.2799 24.286C22.2791 24.7419 22.651 25.113 23.1069 25.113Z" fill="white"/>
<path fill-rule="evenodd" clip-rule="evenodd" d="M20.0743 23.3667C20.3656 23.3667 20.6024 23.13 20.6024 22.8386C20.6024 22.5473 20.3647 22.3105 20.0743 22.3105C19.7829 22.3105 19.5461 22.5482 19.5461 22.8386C19.5453 23.1291 19.7829 23.3667 20.0743 23.3667Z" fill="white"/>
<path d="M76.998 35.416C75.6633 35.416 74.398 35.1733 73.202 34.688C72.0233 34.2027 70.9747 33.5267 70.056 32.66C69.1547 31.7933 68.444 30.7707 67.924 29.592C67.4213 28.396 67.17 27.096 67.17 25.692C67.17 24.288 67.4213 22.9967 67.924 21.818C68.444 20.622 69.1547 19.5907 70.056 18.724C70.9573 17.8573 71.9973 17.1813 73.176 16.696C74.372 16.2107 75.646 15.968 76.998 15.968C78.4887 15.968 79.832 16.228 81.028 16.748C82.224 17.268 83.2467 17.9873 84.096 18.906L81.678 21.272C81.2793 20.8387 80.846 20.4833 80.378 20.206C79.91 19.9113 79.3987 19.686 78.844 19.53C78.2893 19.374 77.6653 19.296 76.972 19.296C76.1227 19.296 75.3167 19.452 74.554 19.764C73.8087 20.0587 73.1413 20.492 72.552 21.064C71.98 21.6187 71.5293 22.286 71.2 23.066C70.8707 23.846 70.706 24.7213 70.706 25.692C70.706 26.6627 70.8707 27.538 71.2 28.318C71.5293 29.098 71.98 29.774 72.552 30.346C73.1413 30.9007 73.8173 31.334 74.58 31.646C75.3427 31.9407 76.1573 32.088 77.024 32.088C77.8907 32.088 78.662 31.9667 79.338 31.724C80.014 31.4813 80.586 31.152 81.054 30.736C81.5393 30.32 81.9207 29.8607 82.198 29.358C82.4927 28.838 82.6833 28.3093 82.77 27.772H76.92V24.782H86.046C86.098 24.9553 86.1413 25.2153 86.176 25.562C86.2107 25.9087 86.228 26.1947 86.228 26.42C86.228 27.7893 85.994 29.0287 85.526 30.138C85.0753 31.2473 84.434 32.2007 83.602 32.998C82.7873 33.778 81.8167 34.376 80.69 34.792C79.5633 35.208 78.3327 35.416 76.998 35.416ZM95.3833 35.416C94.0486 35.416 92.8526 35.1127 91.7953 34.506C90.7553 33.8993 89.9319 33.0673 89.3253 32.01C88.7359 30.9527 88.4413 29.748 88.4413 28.396C88.4413 27.1307 88.7359 25.9607 89.3253 24.886C89.9146 23.8113 90.7206 22.9533 91.7433 22.312C92.7659 21.6533 93.9359 21.324 95.2533 21.324C96.6746 21.324 97.8706 21.6273 98.8413 22.234C99.8119 22.8407 100.549 23.6553 101.051 24.678C101.554 25.6833 101.805 26.8013 101.805 28.032C101.805 28.3093 101.797 28.552 101.779 28.76C101.762 28.9507 101.745 29.0893 101.727 29.176H90.3393V26.758H98.5293C98.5119 26.4633 98.4253 26.16 98.2693 25.848C98.1133 25.536 97.8966 25.25 97.6193 24.99C97.3419 24.73 97.0039 24.522 96.6053 24.366C96.2239 24.1927 95.7819 24.106 95.2793 24.106C94.6206 24.106 94.0139 24.2793 93.4593 24.626C92.9219 24.9727 92.4973 25.458 92.1853 26.082C91.8733 26.6887 91.7173 27.4167 91.7173 28.266C91.7173 29.15 91.8819 29.904 92.2113 30.528C92.5406 31.1347 92.9826 31.6027 93.5373 31.932C94.1093 32.244 94.7419 32.4 95.4353 32.4C96.2499 32.4 96.9346 32.2267 97.4893 31.88C98.0439 31.516 98.4773 31.0653 98.7893 30.528L101.545 31.88C100.921 32.972 100.107 33.8387 99.1013 34.48C98.0959 35.104 96.8566 35.416 95.3833 35.416ZM104.353 35V21.74H107.551V23.404H107.759C108.158 22.7627 108.721 22.26 109.449 21.896C110.177 21.5147 110.966 21.324 111.815 21.324C113.444 21.324 114.666 21.818 115.481 22.806C116.296 23.794 116.703 25.1113 116.703 26.758V35H113.297V27.174C113.297 26.3073 113.072 25.6487 112.621 25.198C112.188 24.73 111.59 24.496 110.827 24.496C110.203 24.496 109.657 24.6693 109.189 25.016C108.738 25.3453 108.383 25.796 108.123 26.368C107.88 26.9227 107.759 27.5467 107.759 28.24V35H104.353ZM119.867 35V16.384H123.273V35H119.867ZM130.626 35.416C129.69 35.416 128.858 35.234 128.13 34.87C127.42 34.4887 126.856 33.96 126.44 33.284C126.024 32.608 125.816 31.828 125.816 30.944C125.816 30.0253 126.05 29.2367 126.518 28.578C127.004 27.9193 127.645 27.408 128.442 27.044C129.257 26.68 130.158 26.498 131.146 26.498C131.684 26.498 132.169 26.5327 132.602 26.602C133.053 26.654 133.452 26.7233 133.798 26.81C134.145 26.8967 134.431 26.992 134.656 27.096V26.524C134.656 25.8133 134.388 25.2327 133.85 24.782C133.313 24.314 132.576 24.08 131.64 24.08C131.016 24.08 130.41 24.2273 129.82 24.522C129.248 24.7993 128.772 25.172 128.39 25.64L126.206 23.924C126.64 23.3693 127.142 22.9013 127.714 22.52C128.286 22.1213 128.919 21.8267 129.612 21.636C130.306 21.428 131.034 21.324 131.796 21.324C133.824 21.324 135.367 21.792 136.424 22.728C137.482 23.664 138.01 25.0333 138.01 26.836V35H134.656V33.648H134.448C134.206 33.96 133.902 34.2547 133.538 34.532C133.174 34.792 132.75 35 132.264 35.156C131.779 35.3293 131.233 35.416 130.626 35.416ZM131.432 32.764C132.126 32.764 132.706 32.6167 133.174 32.322C133.66 32.01 134.024 31.6113 134.266 31.126C134.526 30.6407 134.656 30.1293 134.656 29.592C134.275 29.4013 133.842 29.254 133.356 29.15C132.871 29.0287 132.377 28.968 131.874 28.968C130.869 28.968 130.176 29.1587 129.794 29.54C129.413 29.9213 129.222 30.3893 129.222 30.944C129.222 31.464 129.404 31.8973 129.768 32.244C130.15 32.5907 130.704 32.764 131.432 32.764ZM148.477 35.416C147.836 35.416 147.255 35.3207 146.735 35.13C146.215 34.9393 145.764 34.6967 145.383 34.402C145.019 34.09 144.724 33.7607 144.499 33.414H144.291V35H141.093V16.384H144.499V21.48L144.291 23.352H144.499C144.724 23.0053 145.019 22.676 145.383 22.364C145.764 22.052 146.215 21.8007 146.735 21.61C147.255 21.4193 147.836 21.324 148.477 21.324C149.69 21.324 150.774 21.6273 151.727 22.234C152.698 22.8233 153.46 23.6467 154.015 24.704C154.587 25.7613 154.873 26.9833 154.873 28.37C154.873 29.7567 154.587 30.9787 154.015 32.036C153.46 33.0933 152.698 33.9253 151.727 34.532C150.774 35.1213 149.69 35.416 148.477 35.416ZM147.879 32.27C148.52 32.27 149.11 32.114 149.647 31.802C150.202 31.4727 150.644 31.0133 150.973 30.424C151.32 29.8347 151.493 29.15 151.493 28.37C151.493 27.5727 151.32 26.888 150.973 26.316C150.644 25.744 150.202 25.302 149.647 24.99C149.11 24.6607 148.52 24.496 147.879 24.496C147.255 24.496 146.666 24.6607 146.111 24.99C145.574 25.302 145.132 25.7527 144.785 26.342C144.456 26.914 144.291 27.59 144.291 28.37C144.291 29.15 144.456 29.8347 144.785 30.424C145.132 30.996 145.574 31.4467 146.111 31.776C146.666 32.1053 147.255 32.27 147.879 32.27Z" fill="#013A59"/>
<path d="M159.092 35.156C158.468 35.156 157.931 34.9393 157.48 34.506C157.047 34.0553 156.83 33.518 156.83 32.894C156.83 32.27 157.047 31.7413 157.48 31.308C157.931 30.8747 158.468 30.658 159.092 30.658C159.716 30.658 160.245 30.8747 160.678 31.308C161.129 31.7413 161.354 32.27 161.354 32.894C161.354 33.518 161.129 34.0553 160.678 34.506C160.245 34.9393 159.716 35.156 159.092 35.156Z" fill="#13E0B9"/>
<defs>
<linearGradient id="paint0_linear_711_65" x1="50" y1="25" x2="0" y2="25" gradientUnits="userSpaceOnUse">
<stop stop-color="#13E0B9"/>
<stop offset="1" stop-color="#116DAD"/>
</linearGradient>
</defs>
</svg>
