<svg width="200" height="200" viewBox="0 0 200 200" fill="none" xmlns="http://www.w3.org/2000/svg">
<path d="M126.367 126.367C126.367 155.492 102.757 179.102 73.6328 179.102C44.5082 179.102 20.8984 155.492 20.8984 126.367H126.367ZM73.6328 20.8984C44.5082 20.8984 20.8984 44.5082 20.8984 73.6328C20.8984 102.757 44.5082 126.367 73.6328 126.367V20.8984ZM179.102 73.6328C179.102 44.5082 155.492 20.8984 126.367 20.8984C97.2426 20.8984 73.6328 44.5082 73.6328 73.6328H179.102ZM126.367 179.102C155.492 179.102 179.102 155.492 179.102 126.367C179.102 97.2426 155.492 73.6328 126.367 73.6328V179.102Z" fill="black"/>
</svg>
