<svg width="200" height="200" viewBox="0 0 200 200" fill="none" xmlns="http://www.w3.org/2000/svg">
<g clip-path="url(#clip0_889_202)">
<g clip-path="url(#clip1_889_202)">
<path d="M196.586 112.665C196.553 112.532 196.52 112.432 196.486 112.298C196.429 112.123 196.351 111.955 196.253 111.798C196.252 111.746 196.228 111.697 196.187 111.665C196.05 111.422 195.882 111.198 195.687 110.998C195.544 110.829 195.375 110.683 195.187 110.565C195.153 110.532 195.12 110.532 195.087 110.498C195.053 110.465 195.02 110.465 194.987 110.432L159.525 90.1677C160.458 86.7284 159.975 83.0589 158.184 79.9777C156.393 76.8965 153.443 74.6613 149.993 73.77V46.2407C155.468 44.8456 159.469 40.1505 159.978 34.5236C160.488 28.8966 157.394 23.5595 152.259 21.2044C147.123 18.8488 141.06 19.987 137.128 24.0438L112.931 10.2125C113.197 9.18965 113.332 8.13667 113.331 7.07979C113.332 5.3355 112.969 3.60996 112.265 2.0137C111.914 1.19858 111.252 0.557266 110.426 0.231921C109.599 -0.0934237 108.678 -0.0758481 107.865 0.280742C106.197 1.04157 105.442 2.99559 106.166 4.68012C106.833 6.21038 106.833 7.9492 106.166 9.47945C106.106 9.60521 106.039 9.72785 105.966 9.84619L105.932 9.87939C105.891 9.91728 105.857 9.96258 105.832 10.0126C105.799 10.0458 105.799 10.0794 105.766 10.1458C105.799 10.179 105.766 10.2125 105.732 10.2457C105.461 10.6941 105.136 11.1081 104.766 11.4788C104.142 12.0588 103.42 12.5216 102.633 12.8454C100.941 13.5121 99.0588 13.5121 97.3668 12.8454C96.5794 12.5216 95.8569 12.0588 95.2339 11.4788C94.8636 11.1081 94.5391 10.6937 94.2672 10.2457C94.234 10.2125 94.2005 10.179 94.234 10.1458C94.2008 10.079 94.2009 10.0458 94.1673 10.0126C94.1423 9.96258 94.1083 9.91728 94.0673 9.87939L94.0341 9.84619C93.9606 9.72785 93.8939 9.6056 93.8341 9.47945C93.1662 7.9492 93.1662 6.21038 93.8341 4.68012C94.5574 2.99559 93.8025 1.04157 92.1343 0.280742C91.3216 -0.0758481 90.3998 -0.0934237 89.5742 0.231921C88.7485 0.557266 88.0865 1.19858 87.735 2.0137C87.0315 3.60996 86.6683 5.33511 86.6683 7.07979C86.6679 8.13667 86.8023 9.18965 87.0683 10.2125L62.8717 24.0438C60.3771 21.4563 56.9338 19.9995 53.3398 20.0112C46.6411 20.0303 40.997 25.0171 40.1526 31.6623C39.3082 38.3074 43.5259 44.5472 50.0067 46.2411V73.7704C46.5564 74.6617 43.6064 76.8973 41.8156 79.9781C40.0249 83.0589 39.5417 86.7287 40.4748 90.1681L5.013 110.432C4.9798 110.465 4.94621 110.465 4.91301 110.499C4.87981 110.532 4.84622 110.532 4.81303 110.566C4.62477 110.683 4.45605 110.829 4.3131 110.999C4.11781 111.198 3.94987 111.422 3.81317 111.665C3.77216 111.697 3.74755 111.747 3.74638 111.799C3.64874 111.955 3.57062 112.123 3.51321 112.299C3.48001 112.432 3.44642 112.532 3.41322 112.665C3.37299 112.885 3.35073 113.108 3.34644 113.332V166.658C3.35034 167.008 3.40658 167.357 3.51321 167.691C3.57062 167.866 3.64874 168.034 3.74638 168.191C3.74755 168.243 3.77177 168.292 3.81317 168.324C3.94987 168.567 4.11781 168.791 4.3131 168.991C4.45605 169.16 4.62477 169.306 4.81303 169.424C4.84622 169.457 4.87981 169.457 4.91301 169.491C4.94621 169.524 4.9798 169.524 5.013 169.557L40.408 189.788C40.142 190.811 40.0077 191.864 40.0081 192.92C40.0077 194.665 40.3709 196.39 41.0747 197.987C41.4258 198.802 42.0879 199.443 42.9139 199.768C43.74 200.094 44.6613 200.076 45.4741 199.719C47.1422 198.959 47.8972 197.005 47.1739 195.32C46.506 193.79 46.506 192.051 47.1739 190.521C47.2391 190.381 47.3172 190.247 47.407 190.121C47.448 190.083 47.482 190.038 47.507 189.988C47.5441 189.927 47.5668 189.858 47.5738 189.788C47.8484 189.322 48.1847 188.896 48.5737 188.521C49.1966 187.941 49.9192 187.478 50.7066 187.154C52.3985 186.488 54.2807 186.488 55.9726 187.154C56.76 187.478 57.4826 187.941 58.1055 188.521C58.4945 188.896 58.8308 189.322 59.1054 189.788C59.1124 189.858 59.1351 189.927 59.1722 189.988C59.1972 190.038 59.2312 190.083 59.2722 190.121C59.3624 190.247 59.4405 190.381 59.5053 190.521C60.1732 192.051 60.1732 193.79 59.5053 195.32C58.782 197.005 59.537 198.959 61.2051 199.719C61.6296 199.888 62.0815 199.978 62.5381 199.986C63.8676 199.991 65.0725 199.205 65.6045 197.987C66.3079 196.39 66.6711 194.665 66.6711 192.92C66.6715 191.864 66.5372 190.811 66.2712 189.788L99.9996 170.524L133.728 189.788C133.462 190.811 133.328 191.864 133.328 192.92C133.328 194.665 133.691 196.39 134.395 197.987C134.746 198.802 135.408 199.443 136.234 199.768C137.06 200.094 137.981 200.076 138.794 199.719C140.462 198.959 141.217 197.005 140.494 195.32C139.826 193.79 139.826 192.051 140.494 190.521C140.559 190.381 140.637 190.247 140.727 190.121C140.768 190.083 140.802 190.038 140.827 189.988C140.864 189.927 140.887 189.858 140.894 189.788C141.168 189.322 141.505 188.896 141.894 188.521C142.517 187.941 143.239 187.478 144.027 187.154C145.719 186.488 147.601 186.488 149.293 187.154C150.08 187.478 150.803 187.941 151.426 188.521C151.815 188.896 152.151 189.322 152.425 189.788C152.433 189.858 152.455 189.927 152.492 189.988C152.517 190.038 152.551 190.083 152.592 190.121C152.682 190.247 152.761 190.381 152.825 190.521C153.493 192.051 153.493 193.79 152.825 195.32C152.102 197.005 152.857 198.959 154.525 199.719C154.95 199.888 155.402 199.978 155.858 199.986C157.188 199.991 158.393 199.205 158.925 197.987C159.628 196.39 159.991 194.665 159.991 192.92C159.992 191.864 159.857 190.811 159.591 189.788L194.953 169.557H194.986C195.019 169.524 195.053 169.524 195.086 169.491C195.119 169.457 195.153 169.457 195.186 169.424C195.375 169.306 195.543 169.16 195.686 168.991C195.881 168.791 196.049 168.567 196.186 168.324C196.227 168.292 196.252 168.243 196.253 168.191C196.351 168.034 196.429 167.866 196.486 167.691C196.593 167.356 196.649 167.008 196.653 166.658V113.331C196.649 113.108 196.627 112.885 196.586 112.665ZM40.4084 171.657C39.4882 173.258 37.4436 173.81 35.8423 172.89L18.3447 162.891C18.3115 162.858 18.2779 162.858 18.2447 162.824C18.2115 162.791 18.1779 162.791 18.1447 162.757C18.0619 162.683 17.9729 162.616 17.878 162.558L17.6448 162.324C17.4495 162.125 17.2816 161.901 17.1449 161.658C17.1039 161.626 17.0793 161.576 17.0781 161.524C17.0215 161.455 16.9765 161.376 16.9449 161.291C16.9117 161.191 16.8781 161.125 16.8449 161.025C16.7383 160.69 16.6821 160.342 16.6782 159.991V143.327C16.6782 141.486 18.1701 139.994 20.0109 139.994C21.8516 139.994 23.3436 141.486 23.3436 143.327V158.058L39.1746 167.09C40.7767 168.011 41.3286 170.055 40.4084 171.657ZM59.2058 89.8346C59.1491 89.9045 59.1042 89.9834 59.0726 90.0677C57.872 92.0913 55.693 93.3321 53.3402 93.3321C50.9874 93.3321 48.8084 92.0917 47.6078 90.0677C47.5762 89.9834 47.5312 89.9045 47.4746 89.8346C46.9532 88.8605 46.6786 87.7731 46.6747 86.6682C46.6857 82.9914 49.6638 80.0133 53.3406 80.0023C57.0174 80.0133 59.9955 82.9914 60.0064 86.6682C60.0018 87.7735 59.7272 88.8605 59.2058 89.8346ZM53.3398 40.0084C49.6583 40.0084 46.6739 37.024 46.6739 33.3425C46.6747 30.3406 48.6822 27.7097 51.5772 26.9161C54.4721 26.1224 57.5404 27.3613 59.0722 29.943C59.1038 30.0273 59.1487 30.1062 59.2054 30.1761C59.7268 31.1502 60.0014 32.2376 60.0053 33.3425C60.0057 37.024 57.0213 40.0084 53.3398 40.0084ZM63.3384 56.6728C63.3384 54.8321 64.8304 53.3401 66.6711 53.3401C68.5119 53.3401 70.0039 54.8321 70.0039 56.6728V66.6714C70.0039 68.5122 68.5119 70.0041 66.6711 70.0041C64.8304 70.0041 63.3384 68.5122 63.3384 66.6714V56.6728ZM90.0014 156.659C90.0014 158.5 88.5091 159.991 86.6687 159.991C84.8279 159.991 83.336 158.5 83.336 156.659V143.327C83.336 141.487 84.8283 139.995 86.6687 139.995C88.5095 139.995 90.0014 141.487 90.0014 143.327V156.659ZM87.135 109.832L62.8717 95.9669C64.464 94.3535 65.6123 92.3557 66.2044 90.1677L90.4678 104.033C88.8754 105.646 87.7275 107.644 87.135 109.832ZM103.333 164.724L101.666 163.757C101.17 163.471 100.606 163.322 100.033 163.324C99.943 163.317 99.8524 163.329 99.7665 163.357C99.5517 163.358 99.338 163.392 99.1334 163.457C98.8549 163.522 98.5862 163.623 98.3335 163.757L96.6669 164.724V126.229C98.8514 126.807 101.148 126.807 103.333 126.229V164.724ZM100 119.997C96.3185 119.997 93.3342 117.013 93.3342 113.331C93.3381 112.226 93.6126 111.139 94.1341 110.165C94.1673 110.098 94.234 109.998 94.2672 109.932C95.4679 107.908 97.6469 106.667 99.9996 106.667C102.352 106.667 104.531 107.908 105.732 109.932C105.764 110.016 105.809 110.095 105.865 110.165C106.387 111.139 106.661 112.226 106.665 113.331C106.666 117.013 103.682 119.997 100 119.997ZM133.728 171.657C132.797 173.243 130.766 173.791 129.162 172.89L111.665 162.891C111.632 162.858 111.598 162.858 111.565 162.824C111.532 162.791 111.498 162.791 111.465 162.757C111.382 162.683 111.293 162.616 111.198 162.558L110.965 162.324C110.77 162.125 110.602 161.901 110.465 161.658C110.424 161.626 110.399 161.576 110.398 161.524C110.342 161.455 110.297 161.376 110.265 161.291C110.232 161.191 110.198 161.125 110.165 161.025C110.058 160.69 110.002 160.342 109.998 159.991V143.327C109.998 141.486 111.49 139.994 113.331 139.994C115.172 139.994 116.664 141.486 116.664 143.327V158.058L132.495 167.09C134.087 168.019 134.636 170.053 133.728 171.657ZM112.865 109.832C112.273 107.644 111.125 105.646 109.532 104.033L133.796 90.1677C134.388 92.3557 135.536 94.3535 137.128 95.9669L112.865 109.832ZM140.794 30.1765C140.851 30.1066 140.896 30.0277 140.927 29.9434C142.631 27.0731 146.194 25.9049 149.266 27.2098C152.338 28.5147 153.971 31.8907 153.088 35.1094C152.204 38.3281 149.076 40.397 145.769 39.9509C142.461 39.5045 139.993 36.6807 139.994 33.3433C139.998 32.2376 140.273 31.1506 140.794 30.1765ZM152.526 89.8346C152.469 89.9045 152.424 89.9834 152.393 90.0677C151.192 92.0913 149.013 93.3321 146.66 93.3321C144.307 93.3321 142.128 92.0917 140.928 90.0677C140.895 90.0009 140.828 89.901 140.795 89.8346C140.273 88.8605 139.999 87.7731 139.995 86.6682C140.006 82.9914 142.984 80.0133 146.661 80.0023C150.337 80.0133 153.316 82.9914 153.327 86.6682C153.322 87.7735 153.047 88.8605 152.526 89.8346ZM183.322 156.659C183.322 158.5 181.829 159.991 179.989 159.991C178.148 159.991 176.656 158.5 176.656 156.659V143.327C176.656 141.487 178.148 139.995 179.989 139.995C181.83 139.995 183.322 141.487 183.322 143.327V156.659ZM183.322 129.996C183.322 131.836 181.829 133.328 179.989 133.328C178.148 133.328 176.656 131.836 176.656 129.996V123.33C176.656 121.489 178.148 119.997 179.989 119.997C181.83 119.997 183.322 121.489 183.322 123.33V129.996Z" fill="black"/>
</g>
</g>
<defs>
<clipPath id="clip0_889_202">
<rect width="200" height="200" fill="white"/>
</clipPath>
<clipPath id="clip1_889_202">
<rect width="200" height="200" fill="white"/>
</clipPath>
</defs>
</svg>
