<svg width="31" height="26" viewBox="0 0 31 26" fill="none" xmlns="http://www.w3.org/2000/svg">
<path d="M13.0781 26V17.7228C13.0781 12.9838 11.9802 9.08864 9.78438 6.03745C7.52396 2.92135 4.2625 0.908864 0 0V5.35581C2.06667 5.87516 3.68125 6.84894 4.84375 8.27715C6.00625 9.64045 6.71667 11.3283 6.975 13.3408H1.9375V26H13.0781ZM31 26V17.7228C31 12.9838 29.9021 9.08864 27.7063 6.03745C25.4458 2.92135 22.1844 0.908864 17.9219 0V5.35581C19.9885 5.87516 21.6031 6.84894 22.7656 8.27715C23.9281 9.64045 24.6385 11.3283 24.8969 13.3408H19.8594V26H31Z" fill="#001733" fill-opacity="0.3"/>
</svg>
